<svg width="12" height="12" viewBox="0 0 12 12" fill="none" xmlns="http://www.w3.org/2000/svg">
<g clip-path="url(#clip0_122_4514)">
<path d="M4 1H8M4.5 1V2.3945C4.49999 2.78939 4.38308 3.17545 4.164 3.504L3.836 3.996C3.61683 4.32469 3.49991 4.71094 3.5 5.106V10C3.5 10.2652 3.60536 10.5196 3.79289 10.7071C3.98043 10.8946 4.23478 11 4.5 11H7.5C7.76522 11 8.01957 10.8946 8.20711 10.7071C8.39464 10.5196 8.5 10.2652 8.5 10V5.1055C8.49999 4.71061 8.38308 4.32455 8.164 3.996L7.836 3.504C7.61683 3.17531 7.49991 2.78906 7.5 2.394V1M3.5 7.5C3.89589 7.33421 4.3208 7.24883 4.75 7.24883C5.1792 7.24883 5.60411 7.33421 6 7.5C6.39587 7.66585 6.82079 7.75126 7.25 7.75126C7.67921 7.75126 8.10413 7.66585 8.5 7.5" stroke="#BCD0F3" stroke-linecap="round" stroke-linejoin="round"/>
<g clip-path="url(#clip1_122_4514)">
<path d="M4 1H8" stroke="#BCD0F3" stroke-linecap="round" stroke-linejoin="round"/>
<path d="M4.5 1V1.6715M7.5 1V2.3945C7.50001 2.78939 7.61692 3.17545 7.836 3.504L8.164 3.996C8.38317 4.32469 8.50009 4.71094 8.5 5.106V5.6715M3.9 3.9L3.836 3.996C3.61683 4.32469 3.49991 4.71094 3.5 5.106V10C3.5 10.2652 3.60536 10.5196 3.79289 10.7071C3.98043 10.8946 4.23478 11 4.5 11H7.5C7.76522 11 8.01957 10.8946 8.20711 10.7071C8.39464 10.5196 8.5 10.2652 8.5 10V8.5" stroke="#BCD0F3" stroke-linecap="round" stroke-linejoin="round"/>
<path d="M3.5 7.50028C3.89587 7.33443 4.32079 7.24902 4.75 7.24902C5.17921 7.24902 5.60413 7.33443 6 7.50028C6.54212 7.72742 7.13587 7.80261 7.7175 7.71778" stroke="#BCD0F3" stroke-linecap="round" stroke-linejoin="round"/>
<path d="M1 1L11 11" stroke="#A59D94" stroke-linecap="round" stroke-linejoin="round"/>
</g>
</g>
<defs>
<clipPath id="clip0_122_4514">
<rect width="12" height="12" fill="white"/>
</clipPath>
<clipPath id="clip1_122_4514">
<rect width="12" height="12" fill="white"/>
</clipPath>
</defs>
</svg>
