<svg width="48" height="48" viewBox="0 0 48 48" fill="none" xmlns="http://www.w3.org/2000/svg">
<rect x="0.5" y="0.5" width="47" height="46.6426" rx="23.3213" fill="white"/>
<rect x="0.5" y="0.5" width="47" height="46.6426" rx="23.3213" stroke="#FAD87D"/>
<path d="M42.9752 23.8213C42.9752 34.3997 34.3997 42.9752 23.8213 42.9752C13.2429 42.9752 4.66748 34.3997 4.66748 23.8213C4.66748 13.2429 13.2429 4.66748 23.8213 4.66748C34.3997 4.66748 42.9752 13.2429 42.9752 23.8213Z" fill="white"/>
<path d="M17.1494 20.0005C18.0516 20.0005 18.783 20.7264 18.783 21.6219C18.783 22.5174 18.0516 23.2434 17.1494 23.2434H17.117C16.2148 23.2434 15.4834 22.5174 15.4834 21.6219C15.4834 20.7264 16.2148 20.0005 17.117 20.0005H17.1494Z" fill="#80643C"/>
<path d="M30.2177 17.6841C31.1199 17.6841 31.8513 18.41 31.8513 19.3055C31.8513 20.201 31.1199 20.927 30.2177 20.927H30.1854C29.2831 20.927 28.5518 20.201 28.5518 19.3055C28.5518 18.41 29.2831 17.6841 30.1854 17.6841H30.2177Z" fill="#80643C"/>
<path fill-rule="evenodd" clip-rule="evenodd" d="M23.432 19.6525C23.6082 19.6164 23.7887 19.6914 23.8865 19.8413L25.3087 22.0221L27.8893 22.4547C28.0668 22.4845 28.2076 22.6193 28.244 22.7942C28.2804 22.9692 28.2048 23.1483 28.0537 23.2454L25.8566 24.6569L25.4207 27.2183C25.3908 27.3945 25.2549 27.5343 25.0787 27.5704C24.9024 27.6065 24.7219 27.5315 24.6242 27.3816L23.202 25.2008L20.6214 24.7682C20.4439 24.7384 20.3031 24.6036 20.2667 24.4287C20.2303 24.2537 20.3059 24.0746 20.457 23.9775L22.6541 22.566L23.0899 20.0045C23.1199 19.8284 23.2558 19.6886 23.432 19.6525Z" fill="url(#paint0_linear_250_5292)"/>
<path d="M32.6331 24.7776C32.9392 24.2148 33.6472 24.0049 34.2143 24.3087C34.7813 24.6125 34.9928 25.3153 34.6867 25.8781C32.2245 30.4054 28.5235 32.2114 24.9376 32.487C21.4306 32.7565 18.069 31.5651 16.0812 30.1807C15.5537 29.8133 15.4261 29.0914 15.7963 28.5678C16.1664 28.0442 16.8938 27.9176 17.4213 28.285C19.0028 29.3864 21.8336 30.4023 24.7575 30.1777C27.6024 29.959 30.571 28.5693 32.6331 24.7776Z" fill="#80643C"/>
<path d="M41.8215 23.8218C41.8215 13.8807 33.7625 5.82161 23.8213 5.82161C13.8802 5.82163 5.82114 13.8807 5.82112 23.8218C5.82112 33.7629 13.8802 41.822 23.8213 41.822V42.9757C13.2429 42.9756 4.66748 34.4002 4.66748 23.8218C4.6675 13.2434 13.243 4.66799 23.8213 4.66797C34.3997 4.66797 42.9752 13.2434 42.9752 23.8218C42.9752 34.4002 34.3997 42.9757 23.8213 42.9757V41.822C33.7625 41.822 41.8215 33.763 41.8215 23.8218Z" fill="#FAD87D"/>
<defs>
<linearGradient id="paint0_linear_250_5292" x1="26.6977" y1="18.9834" x2="25.1019" y2="27.5747" gradientUnits="userSpaceOnUse">
<stop offset="0.0438452" stop-color="#ABD0F8"/>
<stop offset="1" stop-color="#FAD87D"/>
</linearGradient>
</defs>
</svg>
