<svg width="14" height="14" viewBox="0 0 14 14" fill="none" xmlns="http://www.w3.org/2000/svg">
<path d="M3.79175 7C4.34008 4.98167 6.67341 3.5 8.75008 3.5C10.8267 3.5 12.2851 4.98167 12.8334 7C12.2851 9.02417 10.8267 10.5 8.75008 10.5C6.67341 10.5 4.34008 9.02417 3.79175 7Z" stroke="#5E87CF" stroke-width="1.16667" stroke-linecap="round" stroke-linejoin="round"/>
<path d="M10.5 7V7.29167" stroke="#5E87CF" stroke-width="1.16667" stroke-linecap="round" stroke-linejoin="round"/>
<path d="M9.33343 10.4589C8.57463 9.46532 8.16357 8.24985 8.16357 6.99969C8.16357 5.74954 8.57463 4.53407 9.33343 3.54053" stroke="#5E87CF" stroke-width="1.16667" stroke-linecap="round" stroke-linejoin="round"/>
<path d="M4.08324 6.22433C4.08324 4.66683 3.25491 3.48266 1.59241 3.2085C1.00907 4.0835 1.00907 6.12516 1.72657 7.00016C1.00324 7.87516 1.00324 9.91683 1.59241 10.7918C3.25491 10.5177 4.08324 9.3335 4.08324 7.776" stroke="#5E87CF" stroke-width="1.16667" stroke-linecap="round" stroke-linejoin="round"/>
<path d="M6.10175 4.23501C5.95008 3.43001 5.34925 2.47334 4.66675 1.75001H8.05008C8.32687 1.74898 8.59501 1.8464 8.80659 2.02485C9.01817 2.20331 9.15941 2.45118 9.20508 2.72417L9.33925 3.54084" stroke="#5E87CF" stroke-width="1.16667" stroke-linecap="round" stroke-linejoin="round"/>
<path d="M9.33925 10.4591L9.20508 11.2757C9.15941 11.5487 9.01817 11.7966 8.80659 11.975C8.59501 12.1535 8.32687 12.2509 8.05008 12.2499H5.54175C6.10691 11.6091 6.41632 10.7826 6.41091 9.92822" stroke="#5E87CF" stroke-width="1.16667" stroke-linecap="round" stroke-linejoin="round"/>
</svg>
