<svg width="19" height="10" viewBox="0 0 19 10" fill="none" xmlns="http://www.w3.org/2000/svg">
<path d="M13.0303 7.24018L13.1203 6.25018C13.4736 6.25018 13.8203 6.22684 14.1603 6.18018C14.5003 6.12684 14.8303 6.05351 15.1503 5.96018C15.4769 5.86684 15.7869 5.75018 16.0803 5.61018C16.3803 5.47018 16.6636 5.31018 16.9303 5.13018C16.7503 4.98351 16.5469 4.85684 16.3203 4.75018C16.0936 4.64351 15.8436 4.56351 15.5703 4.51018C15.3036 4.45018 15.0236 4.42018 14.7303 4.42018C14.6236 4.42018 14.5169 4.42351 14.4103 4.43018C14.3103 4.43684 14.2103 4.45018 14.1103 4.47018C14.0103 4.48351 13.9003 4.50351 13.7803 4.53018L13.6103 3.59018C13.7969 3.53684 13.9836 3.49684 14.1703 3.47018C14.3636 3.44351 14.5436 3.43018 14.7103 3.43018C15.0569 3.43018 15.3736 3.47351 15.6603 3.56018C15.9469 3.64018 16.2103 3.74018 16.4503 3.86018C16.6903 3.98018 16.9136 4.10018 17.1203 4.22018C17.3336 4.34018 17.5369 4.44018 17.7303 4.52018C17.9236 4.60018 18.1236 4.64018 18.3303 4.64018H18.5903L18.6803 5.54018C18.3936 5.54684 18.1269 5.59351 17.8803 5.68018C17.6403 5.76018 17.4036 5.86684 17.1703 6.00018C16.9369 6.12684 16.6903 6.26351 16.4303 6.41018C16.1703 6.55018 15.8803 6.68351 15.5603 6.81018C15.2469 6.93018 14.8836 7.03351 14.4703 7.12018C14.0569 7.20018 13.5769 7.24018 13.0303 7.24018Z" fill="#43802D"/>
<path d="M13.0297 7.24C12.6097 7.24 12.263 7.20667 11.9897 7.14C11.723 7.07333 11.513 6.97 11.3597 6.83C11.2064 6.68333 11.0997 6.5 11.0397 6.28C10.9797 6.06 10.943 5.79667 10.9297 5.49L10.7197 0H11.7197L11.9197 5.07C11.933 5.39 11.963 5.63667 12.0097 5.81C12.063 5.97667 12.173 6.09333 12.3397 6.16C12.513 6.22 12.7764 6.25 13.1297 6.25C13.303 6.25 13.4264 6.29667 13.4997 6.39C13.5797 6.48333 13.6197 6.59333 13.6197 6.72C13.6197 6.86 13.5664 6.98333 13.4597 7.09C13.353 7.19 13.2097 7.24 13.0297 7.24ZM8.21971 7.24C8.03971 7.24 7.85637 7.22333 7.66971 7.19C7.48971 7.16333 7.36304 7.14333 7.28971 7.13L7.41971 6.15C7.87971 6.21 8.31637 6.22 8.72971 6.18C9.14971 6.14 9.51637 6.02667 9.82971 5.84C10.1497 5.65333 10.3997 5.37333 10.5797 5C10.7664 4.62667 10.8597 4.14 10.8597 3.54L11.3597 4.85C11.2797 5.27667 11.153 5.63667 10.9797 5.93C10.813 6.21667 10.6164 6.44667 10.3897 6.62C10.1697 6.79333 9.93304 6.92667 9.67971 7.02C9.42637 7.10667 9.17304 7.16333 8.91971 7.19C8.67304 7.22333 8.43971 7.24 8.21971 7.24ZM10.3897 5.87C10.283 5.67 10.133 5.43333 9.93971 5.16C9.75304 4.88667 9.52304 4.58667 9.24971 4.26C8.97637 3.93333 8.66637 3.59333 8.31971 3.24C7.97971 2.88 7.60637 2.51667 7.19971 2.15L7.83971 1.47C8.33304 1.93667 8.75637 2.35667 9.10971 2.73C9.46971 3.10333 9.77304 3.44333 10.0197 3.75C10.273 4.05 10.483 4.32 10.6497 4.56C10.8164 4.8 10.9597 5.02333 11.0797 5.23L10.3897 5.87Z" fill="#43802D"/>
<path d="M0 7.11C0 6.95667 0.0133333 6.78667 0.04 6.6C0.0733333 6.40667 0.12 6.19667 0.18 5.97C0.246667 5.74333 0.336667 5.5 0.45 5.24L1.32 5.56C1.25333 5.75333 1.19333 5.93333 1.14 6.1C1.08667 6.26667 1.04667 6.42333 1.02 6.57C1 6.71667 0.99 6.85667 0.99 6.99C0.99 7.31667 1.07 7.59333 1.23 7.82C1.39667 8.05333 1.62667 8.23 1.92 8.35C2.21333 8.47 2.55333 8.53 2.94 8.53C3.42667 8.53 3.82 8.45667 4.12 8.31C4.42667 8.17 4.66 7.95667 4.82 7.67C4.98667 7.38333 5.09333 7.03 5.14 6.61C5.19333 6.18333 5.21333 5.69333 5.2 5.14L5.01 0H6.01L6.18 5.27C6.19333 5.71 6.17333 6.14 6.12 6.56C6.07333 6.97333 5.98 7.35667 5.84 7.71C5.70667 8.07 5.51333 8.38333 5.26 8.65C5.01333 8.92333 4.69667 9.13333 4.31 9.28C3.92333 9.43333 3.45667 9.51 2.91 9.51C2.53 9.51 2.16667 9.46 1.82 9.36C1.47333 9.26667 1.16333 9.12333 0.89 8.93C0.616667 8.73667 0.4 8.49 0.24 8.19C0.08 7.89 0 7.53 0 7.11Z" fill="#43802D"/>
</svg>
