<svg width="348" height="169" viewBox="0 0 348 169" fill="none" xmlns="http://www.w3.org/2000/svg">
<path d="M0 14C0 6.26801 6.26801 0 14 0H334C341.732 0 348 6.26801 348 14V154C348 161.732 341.732 168 334 168H14C6.268 168 0 161.732 0 154V14Z" fill="url(#paint0_linear_426_60708)"/>
<path d="M14 0.5H334C341.456 0.5 347.5 6.54416 347.5 14V154C347.5 161.456 341.456 167.5 334 167.5H14C6.54416 167.5 0.5 161.456 0.5 154V14C0.5 6.54416 6.54416 0.500001 14 0.5Z" stroke="black" stroke-opacity="0.09"/>
<path d="M26.4141 28.3794C26.5206 28.3795 26.6166 28.4451 26.6553 28.5444L27.2168 29.9897L28.6631 30.5522C28.7623 30.591 28.8271 30.6869 28.8271 30.7935C28.8271 30.9 28.7623 30.996 28.6631 31.0347L27.2168 31.5962L26.6553 33.0425C26.6166 33.1417 26.5206 33.2064 26.4141 33.2065C26.3075 33.2065 26.2116 33.1417 26.1729 33.0425L25.6104 31.5962L24.165 31.0347C24.0657 30.996 24.0001 30.9 24 30.7935C24 30.6868 24.0656 30.5909 24.165 30.5522L25.6104 29.9897L26.1729 28.5444C26.2115 28.445 26.3074 28.3794 26.4141 28.3794ZM32.207 20.1724C32.4628 20.1724 32.6923 20.3295 32.7852 20.5679L34.1348 24.0376L37.6045 25.3872C37.8428 25.48 37.9999 25.7095 38 25.9653C38 26.2213 37.843 26.4516 37.6045 26.5444L34.1348 27.8931L32.7852 31.3628C32.6924 31.6013 32.4629 31.7582 32.207 31.7583C31.9511 31.7583 31.7207 31.6014 31.6279 31.3628L30.2793 27.8931L26.8096 26.5444C26.571 26.4517 26.4141 26.2213 26.4141 25.9653C26.4141 25.7094 26.5711 25.48 26.8096 25.3872L30.2793 24.0376L31.6279 20.5679C31.7207 20.3293 31.9511 20.1724 32.207 20.1724Z" fill="url(#paint1_linear_426_60708)"/>
<path d="M48.36 28V21.82H46.29V21H51.44V21.82H49.36V28H48.36ZM53.7546 28.12C53.3613 28.12 53.0179 28.04 52.7246 27.88C52.4379 27.72 52.2146 27.48 52.0546 27.16C51.9013 26.84 51.8246 26.4367 51.8246 25.95V22.96H52.8246V25.84C52.8246 26.3133 52.9279 26.67 53.1346 26.91C53.3413 27.15 53.6379 27.27 54.0246 27.27C54.2846 27.27 54.5179 27.2067 54.7246 27.08C54.9379 26.9533 55.1046 26.77 55.2246 26.53C55.3446 26.29 55.4046 25.9967 55.4046 25.65V22.96H56.4046V28H55.5146L55.4446 27.14C55.2913 27.4467 55.0679 27.6867 54.7746 27.86C54.4813 28.0333 54.1413 28.12 53.7546 28.12ZM57.7738 28V22.96H58.6738L58.7638 23.91C58.8771 23.6833 59.0238 23.4933 59.2038 23.34C59.3838 23.18 59.5938 23.0567 59.8338 22.97C60.0804 22.8833 60.3604 22.84 60.6738 22.84V23.9H60.3138C60.1071 23.9 59.9104 23.9267 59.7238 23.98C59.5371 24.0267 59.3704 24.11 59.2238 24.23C59.0838 24.35 58.9738 24.5133 58.8938 24.72C58.8138 24.9267 58.7738 25.1833 58.7738 25.49V28H57.7738ZM61.5921 28V22.96H62.4921L62.5521 23.82C62.7121 23.52 62.9388 23.2833 63.2321 23.11C63.5254 22.93 63.8621 22.84 64.2421 22.84C64.6421 22.84 64.9854 22.92 65.2721 23.08C65.5588 23.24 65.7821 23.4833 65.9421 23.81C66.1021 24.13 66.1821 24.5333 66.1821 25.02V28H65.1821V25.12C65.1821 24.6533 65.0788 24.3 64.8721 24.06C64.6654 23.82 64.3654 23.7 63.9721 23.7C63.7121 23.7 63.4788 23.7633 63.2721 23.89C63.0654 24.01 62.8988 24.19 62.7721 24.43C62.6521 24.67 62.5921 24.9633 62.5921 25.31V28H61.5921ZM70.0198 28V22.96H70.9198L70.9898 23.67C71.1498 23.41 71.3632 23.2067 71.6298 23.06C71.8965 22.9133 72.1965 22.84 72.5298 22.84C72.7832 22.84 73.0132 22.8767 73.2198 22.95C73.4265 23.0167 73.6098 23.12 73.7698 23.26C73.9298 23.4 74.0598 23.5733 74.1598 23.78C74.3398 23.4867 74.5798 23.2567 74.8798 23.09C75.1865 22.9233 75.5098 22.84 75.8498 22.84C76.2565 22.84 76.6065 22.9233 76.8998 23.09C77.1932 23.25 77.4165 23.4933 77.5698 23.82C77.7232 24.14 77.7998 24.54 77.7998 25.02V28H76.8098V25.12C76.8098 24.6533 76.7132 24.3 76.5198 24.06C76.3332 23.82 76.0565 23.7 75.6898 23.7C75.4432 23.7 75.2232 23.7633 75.0298 23.89C74.8365 24.0167 74.6832 24.2 74.5698 24.44C74.4632 24.68 74.4098 24.9733 74.4098 25.32V28H73.4098V25.12C73.4098 24.6533 73.3132 24.3 73.1198 24.06C72.9332 23.82 72.6565 23.7 72.2898 23.7C72.0565 23.7 71.8432 23.7633 71.6498 23.89C71.4565 24.0167 71.3032 24.2 71.1898 24.44C71.0765 24.68 71.0198 24.9733 71.0198 25.32V28H70.0198ZM79.1621 28V22.96H80.1621V28H79.1621ZM79.6721 22.01C79.4788 22.01 79.3188 21.95 79.1921 21.83C79.0721 21.71 79.0121 21.5567 79.0121 21.37C79.0121 21.19 79.0721 21.0433 79.1921 20.93C79.3188 20.81 79.4788 20.75 79.6721 20.75C79.8588 20.75 80.0154 20.81 80.1421 20.93C80.2688 21.0433 80.3321 21.19 80.3321 21.37C80.3321 21.5567 80.2688 21.71 80.1421 21.83C80.0154 21.95 79.8588 22.01 79.6721 22.01ZM81.1121 28L82.8521 25.48L81.1121 22.96H82.1921L83.5121 24.92L84.8421 22.96H85.9121L84.1721 25.48L85.9121 28H84.8421L83.5121 26.03L82.1921 28H81.1121ZM88.833 28.12C88.353 28.12 87.9264 28.01 87.553 27.79C87.1797 27.57 86.8864 27.2633 86.673 26.87C86.4664 26.4767 86.363 26.02 86.363 25.5C86.363 24.9667 86.4664 24.5033 86.673 24.11C86.8864 23.71 87.1797 23.4 87.553 23.18C87.9264 22.9533 88.3597 22.84 88.853 22.84C89.3464 22.84 89.7697 22.95 90.123 23.17C90.4764 23.39 90.7497 23.6833 90.943 24.05C91.1364 24.41 91.233 24.81 91.233 25.25C91.233 25.3167 91.2297 25.39 91.223 25.47C91.223 25.5433 91.2197 25.6267 91.213 25.72H87.093V25.01H90.233C90.213 24.59 90.073 24.2633 89.813 24.03C89.553 23.79 89.2297 23.67 88.843 23.67C88.5697 23.67 88.3197 23.7333 88.093 23.86C87.8664 23.98 87.683 24.16 87.543 24.4C87.4097 24.6333 87.343 24.93 87.343 25.29V25.57C87.343 25.9433 87.4097 26.26 87.543 26.52C87.683 26.7733 87.8664 26.9667 88.093 27.1C88.3197 27.2267 88.5664 27.29 88.833 27.29C89.153 27.29 89.4164 27.22 89.623 27.08C89.8297 26.94 89.983 26.75 90.083 26.51H91.083C90.9964 26.8167 90.8497 27.0933 90.643 27.34C90.4364 27.58 90.1797 27.77 89.873 27.91C89.573 28.05 89.2264 28.12 88.833 28.12ZM94.5841 28.12C94.1041 28.12 93.6807 28.0067 93.3141 27.78C92.9474 27.5467 92.6607 27.2333 92.4541 26.84C92.2541 26.44 92.1541 25.9867 92.1541 25.48C92.1541 24.9667 92.2541 24.5133 92.4541 24.12C92.6607 23.7267 92.9474 23.4167 93.3141 23.19C93.6874 22.9567 94.1141 22.84 94.5941 22.84C94.9874 22.84 95.3341 22.92 95.6341 23.08C95.9341 23.2333 96.1674 23.4533 96.3341 23.74V20.8H97.3341V28H96.4341L96.3341 27.22C96.2341 27.3733 96.1041 27.52 95.9441 27.66C95.7841 27.7933 95.5907 27.9033 95.3641 27.99C95.1374 28.0767 94.8774 28.12 94.5841 28.12ZM94.7441 27.25C95.0574 27.25 95.3341 27.1767 95.5741 27.03C95.8141 26.8833 95.9974 26.6767 96.1241 26.41C96.2574 26.1433 96.3241 25.8333 96.3241 25.48C96.3241 25.1267 96.2574 24.82 96.1241 24.56C95.9974 24.2933 95.8141 24.0867 95.5741 23.94C95.3341 23.7867 95.0574 23.71 94.7441 23.71C94.4441 23.71 94.1741 23.7867 93.9341 23.94C93.6941 24.0867 93.5074 24.2933 93.3741 24.56C93.2407 24.82 93.1741 25.1267 93.1741 25.48C93.1741 25.8333 93.2407 26.1433 93.3741 26.41C93.5074 26.6767 93.6941 26.8833 93.9341 27.03C94.1741 27.1767 94.4441 27.25 94.7441 27.25ZM103.21 28.12C102.783 28.12 102.41 28.05 102.09 27.91C101.77 27.77 101.517 27.5733 101.33 27.32C101.143 27.0667 101.03 26.77 100.99 26.43H102.01C102.043 26.59 102.107 26.7367 102.2 26.87C102.3 27.0033 102.433 27.11 102.6 27.19C102.773 27.27 102.977 27.31 103.21 27.31C103.43 27.31 103.61 27.28 103.75 27.22C103.897 27.1533 104.003 27.0667 104.07 26.96C104.137 26.8467 104.17 26.7267 104.17 26.6C104.17 26.4133 104.123 26.2733 104.03 26.18C103.943 26.08 103.81 26.0033 103.63 25.95C103.457 25.89 103.247 25.8367 103 25.79C102.767 25.75 102.54 25.6967 102.32 25.63C102.107 25.5567 101.913 25.4667 101.74 25.36C101.573 25.2533 101.44 25.12 101.34 24.96C101.24 24.7933 101.19 24.59 101.19 24.35C101.19 24.0633 101.267 23.8067 101.42 23.58C101.573 23.3467 101.79 23.1667 102.07 23.04C102.357 22.9067 102.693 22.84 103.08 22.84C103.64 22.84 104.09 22.9733 104.43 23.24C104.77 23.5067 104.97 23.8833 105.03 24.37H104.06C104.033 24.1433 103.933 23.97 103.76 23.85C103.587 23.7233 103.357 23.66 103.07 23.66C102.783 23.66 102.563 23.7167 102.41 23.83C102.257 23.9433 102.18 24.0933 102.18 24.28C102.18 24.4 102.223 24.5067 102.31 24.6C102.397 24.6933 102.523 24.7733 102.69 24.84C102.863 24.9 103.073 24.9567 103.32 25.01C103.673 25.0767 103.99 25.16 104.27 25.26C104.55 25.36 104.773 25.5067 104.94 25.7C105.107 25.8933 105.19 26.17 105.19 26.53C105.197 26.8433 105.117 27.12 104.95 27.36C104.79 27.6 104.56 27.7867 104.26 27.92C103.967 28.0533 103.617 28.12 103.21 28.12ZM106.438 28V22.96H107.438V28H106.438ZM106.948 22.01C106.754 22.01 106.594 21.95 106.468 21.83C106.348 21.71 106.288 21.5567 106.288 21.37C106.288 21.19 106.348 21.0433 106.468 20.93C106.594 20.81 106.754 20.75 106.948 20.75C107.134 20.75 107.291 20.81 107.418 20.93C107.544 21.0433 107.608 21.19 107.608 21.37C107.608 21.5567 107.544 21.71 107.418 21.83C107.291 21.95 107.134 22.01 106.948 22.01ZM110.918 30.32C110.458 30.32 110.051 30.26 109.698 30.14C109.344 30.0267 109.071 29.85 108.878 29.61C108.684 29.37 108.588 29.0767 108.588 28.73C108.588 28.55 108.628 28.3667 108.708 28.18C108.788 28 108.918 27.8267 109.098 27.66C109.278 27.4933 109.521 27.3433 109.828 27.21L110.388 27.66C110.048 27.7867 109.818 27.9367 109.698 28.11C109.584 28.29 109.528 28.4633 109.528 28.63C109.528 28.83 109.588 28.9967 109.708 29.13C109.828 29.2633 109.991 29.3633 110.198 29.43C110.411 29.4967 110.651 29.53 110.918 29.53C111.178 29.53 111.404 29.4933 111.598 29.42C111.791 29.3467 111.941 29.2433 112.048 29.11C112.154 28.9767 112.208 28.82 112.208 28.64C112.208 28.4267 112.128 28.2467 111.968 28.1C111.808 27.96 111.501 27.8767 111.048 27.85C110.668 27.8233 110.344 27.7867 110.078 27.74C109.818 27.6933 109.594 27.6367 109.408 27.57C109.228 27.5033 109.074 27.43 108.948 27.35C108.828 27.27 108.724 27.1867 108.638 27.1V26.87L109.638 25.84L110.448 26.12L109.358 27.13L109.568 26.68C109.641 26.7267 109.711 26.7733 109.778 26.82C109.844 26.86 109.934 26.8967 110.048 26.93C110.161 26.9633 110.314 26.9933 110.508 27.02C110.701 27.0467 110.954 27.0733 111.268 27.1C111.721 27.1333 112.084 27.2133 112.358 27.34C112.638 27.4667 112.841 27.6367 112.968 27.85C113.094 28.0633 113.158 28.3167 113.158 28.61C113.158 28.8967 113.078 29.17 112.918 29.43C112.764 29.69 112.521 29.9033 112.188 30.07C111.861 30.2367 111.438 30.32 110.918 30.32ZM110.918 26.45C110.491 26.45 110.128 26.37 109.828 26.21C109.534 26.05 109.308 25.8333 109.148 25.56C108.994 25.2867 108.918 24.9833 108.918 24.65C108.918 24.31 108.994 24.0067 109.148 23.74C109.308 23.4667 109.538 23.25 109.838 23.09C110.138 22.9233 110.498 22.84 110.918 22.84C111.338 22.84 111.694 22.9233 111.988 23.09C112.288 23.25 112.514 23.4667 112.668 23.74C112.828 24.0067 112.908 24.31 112.908 24.65C112.908 24.9833 112.828 25.2867 112.668 25.56C112.514 25.8333 112.288 26.05 111.988 26.21C111.694 26.37 111.338 26.45 110.918 26.45ZM110.918 25.65C111.244 25.65 111.504 25.5667 111.698 25.4C111.891 25.2267 111.988 24.9767 111.988 24.65C111.988 24.3233 111.891 24.0767 111.698 23.91C111.504 23.7367 111.244 23.65 110.918 23.65C110.591 23.65 110.328 23.7367 110.128 23.91C109.928 24.0767 109.828 24.3233 109.828 24.65C109.828 24.9767 109.928 25.2267 110.128 25.4C110.328 25.5667 110.591 25.65 110.918 25.65ZM111.738 23.75L111.498 22.96H113.568V23.65L111.738 23.75ZM114.571 28V22.96H115.471L115.531 23.82C115.691 23.52 115.917 23.2833 116.211 23.11C116.504 22.93 116.841 22.84 117.221 22.84C117.621 22.84 117.964 22.92 118.251 23.08C118.537 23.24 118.761 23.4833 118.921 23.81C119.081 24.13 119.161 24.5333 119.161 25.02V28H118.161V25.12C118.161 24.6533 118.057 24.3 117.851 24.06C117.644 23.82 117.344 23.7 116.951 23.7C116.691 23.7 116.457 23.7633 116.251 23.89C116.044 24.01 115.877 24.19 115.751 24.43C115.631 24.67 115.571 24.9633 115.571 25.31V28H114.571ZM122.11 28.12C121.696 28.12 121.353 28.05 121.08 27.91C120.806 27.77 120.603 27.5833 120.47 27.35C120.336 27.11 120.27 26.8533 120.27 26.58C120.27 26.2467 120.356 25.9633 120.53 25.73C120.703 25.49 120.95 25.3067 121.27 25.18C121.59 25.0533 121.973 24.99 122.42 24.99H123.73C123.73 24.6967 123.686 24.4533 123.6 24.26C123.513 24.0667 123.383 23.9233 123.21 23.83C123.043 23.73 122.83 23.68 122.57 23.68C122.27 23.68 122.013 23.7533 121.8 23.9C121.586 24.04 121.453 24.25 121.4 24.53H120.4C120.44 24.1767 120.56 23.8767 120.76 23.63C120.966 23.3767 121.23 23.1833 121.55 23.05C121.87 22.91 122.21 22.84 122.57 22.84C123.043 22.84 123.44 22.9233 123.76 23.09C124.08 23.2567 124.32 23.4933 124.48 23.8C124.646 24.1 124.73 24.46 124.73 24.88V28H123.86L123.78 27.15C123.706 27.2833 123.62 27.41 123.52 27.53C123.42 27.65 123.3 27.7533 123.16 27.84C123.026 27.9267 122.87 27.9933 122.69 28.04C122.516 28.0933 122.323 28.12 122.11 28.12ZM122.3 27.31C122.513 27.31 122.706 27.2667 122.88 27.18C123.053 27.0933 123.2 26.9767 123.32 26.83C123.446 26.6767 123.54 26.5067 123.6 26.32C123.666 26.1267 123.703 25.93 123.71 25.73V25.7H122.52C122.233 25.7 122 25.7367 121.82 25.81C121.646 25.8767 121.52 25.97 121.44 26.09C121.36 26.21 121.32 26.35 121.32 26.51C121.32 26.6767 121.356 26.82 121.43 26.94C121.51 27.0533 121.623 27.1433 121.77 27.21C121.916 27.2767 122.093 27.31 122.3 27.31ZM126.006 28V20.8H127.006V28H126.006ZM130.329 28.12C129.903 28.12 129.529 28.05 129.209 27.91C128.889 27.77 128.636 27.5733 128.449 27.32C128.263 27.0667 128.149 26.77 128.109 26.43H129.129C129.163 26.59 129.226 26.7367 129.319 26.87C129.419 27.0033 129.553 27.11 129.719 27.19C129.893 27.27 130.096 27.31 130.329 27.31C130.549 27.31 130.729 27.28 130.869 27.22C131.016 27.1533 131.123 27.0667 131.189 26.96C131.256 26.8467 131.289 26.7267 131.289 26.6C131.289 26.4133 131.243 26.2733 131.149 26.18C131.063 26.08 130.929 26.0033 130.749 25.95C130.576 25.89 130.366 25.8367 130.119 25.79C129.886 25.75 129.659 25.6967 129.439 25.63C129.226 25.5567 129.033 25.4667 128.859 25.36C128.693 25.2533 128.559 25.12 128.459 24.96C128.359 24.7933 128.309 24.59 128.309 24.35C128.309 24.0633 128.386 23.8067 128.539 23.58C128.693 23.3467 128.909 23.1667 129.189 23.04C129.476 22.9067 129.813 22.84 130.199 22.84C130.759 22.84 131.209 22.9733 131.549 23.24C131.889 23.5067 132.089 23.8833 132.149 24.37H131.179C131.153 24.1433 131.053 23.97 130.879 23.85C130.706 23.7233 130.476 23.66 130.189 23.66C129.903 23.66 129.683 23.7167 129.529 23.83C129.376 23.9433 129.299 24.0933 129.299 24.28C129.299 24.4 129.343 24.5067 129.429 24.6C129.516 24.6933 129.643 24.7733 129.809 24.84C129.983 24.9 130.193 24.9567 130.439 25.01C130.793 25.0767 131.109 25.16 131.389 25.26C131.669 25.36 131.893 25.5067 132.059 25.7C132.226 25.8933 132.309 26.17 132.309 26.53C132.316 26.8433 132.236 27.12 132.069 27.36C131.909 27.6 131.679 27.7867 131.379 27.92C131.086 28.0533 130.736 28.12 130.329 28.12ZM136.115 28V22.96H137.115V28H136.115ZM136.625 22.01C136.432 22.01 136.272 21.95 136.145 21.83C136.025 21.71 135.965 21.5567 135.965 21.37C135.965 21.19 136.025 21.0433 136.145 20.93C136.272 20.81 136.432 20.75 136.625 20.75C136.812 20.75 136.969 20.81 137.095 20.93C137.222 21.0433 137.285 21.19 137.285 21.37C137.285 21.5567 137.222 21.71 137.095 21.83C136.969 21.95 136.812 22.01 136.625 22.01ZM138.545 28V22.96H139.445L139.505 23.82C139.665 23.52 139.892 23.2833 140.185 23.11C140.479 22.93 140.815 22.84 141.195 22.84C141.595 22.84 141.939 22.92 142.225 23.08C142.512 23.24 142.735 23.4833 142.895 23.81C143.055 24.13 143.135 24.5333 143.135 25.02V28H142.135V25.12C142.135 24.6533 142.032 24.3 141.825 24.06C141.619 23.82 141.319 23.7 140.925 23.7C140.665 23.7 140.432 23.7633 140.225 23.89C140.019 24.01 139.852 24.19 139.725 24.43C139.605 24.67 139.545 24.9633 139.545 25.31V28H138.545ZM146.494 28C146.174 28 145.898 27.95 145.664 27.85C145.431 27.75 145.251 27.5833 145.124 27.35C144.998 27.1167 144.934 26.8 144.934 26.4V23.81H144.064V22.96H144.934L145.054 21.7H145.934V22.96H147.364V23.81H145.934V26.41C145.934 26.6967 145.994 26.8933 146.114 27C146.234 27.1 146.441 27.15 146.734 27.15H147.314V28H146.494ZM150.63 28.12C150.157 28.12 149.73 28.01 149.35 27.79C148.977 27.57 148.68 27.2633 148.46 26.87C148.247 26.47 148.14 26.01 148.14 25.49C148.14 24.9567 148.25 24.4933 148.47 24.1C148.69 23.7 148.99 23.39 149.37 23.17C149.75 22.95 150.177 22.84 150.65 22.84C151.13 22.84 151.557 22.95 151.93 23.17C152.304 23.39 152.597 23.6967 152.81 24.09C153.03 24.4833 153.14 24.9467 153.14 25.48C153.14 26.0133 153.03 26.4767 152.81 26.87C152.597 27.2633 152.3 27.57 151.92 27.79C151.54 28.01 151.11 28.12 150.63 28.12ZM150.63 27.26C150.904 27.26 151.15 27.1933 151.37 27.06C151.597 26.9267 151.777 26.73 151.91 26.47C152.05 26.2033 152.12 25.8733 152.12 25.48C152.12 25.0867 152.054 24.76 151.92 24.5C151.787 24.2333 151.607 24.0333 151.38 23.9C151.16 23.7667 150.917 23.7 150.65 23.7C150.384 23.7 150.137 23.7667 149.91 23.9C149.684 24.0333 149.5 24.2333 149.36 24.5C149.227 24.76 149.16 25.0867 149.16 25.48C149.16 25.8733 149.227 26.2033 149.36 26.47C149.5 26.73 149.68 26.9267 149.9 27.06C150.127 27.1933 150.37 27.26 150.63 27.26ZM158.545 28.12C158.132 28.12 157.789 28.05 157.515 27.91C157.242 27.77 157.039 27.5833 156.905 27.35C156.772 27.11 156.705 26.8533 156.705 26.58C156.705 26.2467 156.792 25.9633 156.965 25.73C157.139 25.49 157.385 25.3067 157.705 25.18C158.025 25.0533 158.409 24.99 158.855 24.99H160.165C160.165 24.6967 160.122 24.4533 160.035 24.26C159.949 24.0667 159.819 23.9233 159.645 23.83C159.479 23.73 159.265 23.68 159.005 23.68C158.705 23.68 158.449 23.7533 158.235 23.9C158.022 24.04 157.889 24.25 157.835 24.53H156.835C156.875 24.1767 156.995 23.8767 157.195 23.63C157.402 23.3767 157.665 23.1833 157.985 23.05C158.305 22.91 158.645 22.84 159.005 22.84C159.479 22.84 159.875 22.9233 160.195 23.09C160.515 23.2567 160.755 23.4933 160.915 23.8C161.082 24.1 161.165 24.46 161.165 24.88V28H160.295L160.215 27.15C160.142 27.2833 160.055 27.41 159.955 27.53C159.855 27.65 159.735 27.7533 159.595 27.84C159.462 27.9267 159.305 27.9933 159.125 28.04C158.952 28.0933 158.759 28.12 158.545 28.12ZM158.735 27.31C158.949 27.31 159.142 27.2667 159.315 27.18C159.489 27.0933 159.635 26.9767 159.755 26.83C159.882 26.6767 159.975 26.5067 160.035 26.32C160.102 26.1267 160.139 25.93 160.145 25.73V25.7H158.955C158.669 25.7 158.435 25.7367 158.255 25.81C158.082 25.8767 157.955 25.97 157.875 26.09C157.795 26.21 157.755 26.35 157.755 26.51C157.755 26.6767 157.792 26.82 157.865 26.94C157.945 27.0533 158.059 27.1433 158.205 27.21C158.352 27.2767 158.529 27.31 158.735 27.31ZM167.33 28.12C166.844 28.12 166.41 28.01 166.03 27.79C165.65 27.5633 165.35 27.2533 165.13 26.86C164.917 26.4667 164.81 26.01 164.81 25.49C164.81 24.9633 164.917 24.5033 165.13 24.11C165.35 23.71 165.65 23.4 166.03 23.18C166.41 22.9533 166.844 22.84 167.33 22.84C167.944 22.84 168.457 23 168.87 23.32C169.284 23.64 169.547 24.0733 169.66 24.62H168.62C168.554 24.3267 168.4 24.1 168.16 23.94C167.927 23.78 167.647 23.7 167.32 23.7C167.054 23.7 166.807 23.77 166.58 23.91C166.354 24.0433 166.17 24.2433 166.03 24.51C165.897 24.77 165.83 25.0933 165.83 25.48C165.83 25.7667 165.87 26.0233 165.95 26.25C166.03 26.47 166.137 26.6567 166.27 26.81C166.41 26.9633 166.57 27.08 166.75 27.16C166.93 27.2333 167.12 27.27 167.32 27.27C167.54 27.27 167.737 27.2367 167.91 27.17C168.09 27.0967 168.24 26.99 168.36 26.85C168.487 26.71 168.574 26.5433 168.62 26.35H169.66C169.547 26.8833 169.284 27.3133 168.87 27.64C168.457 27.96 167.944 28.12 167.33 28.12ZM170.83 28V20.8H171.83V28H170.83ZM175.483 28.12C175.003 28.12 174.577 28.01 174.203 27.79C173.83 27.57 173.537 27.2633 173.323 26.87C173.117 26.4767 173.013 26.02 173.013 25.5C173.013 24.9667 173.117 24.5033 173.323 24.11C173.537 23.71 173.83 23.4 174.203 23.18C174.577 22.9533 175.01 22.84 175.503 22.84C175.997 22.84 176.42 22.95 176.773 23.17C177.127 23.39 177.4 23.6833 177.593 24.05C177.787 24.41 177.883 24.81 177.883 25.25C177.883 25.3167 177.88 25.39 177.873 25.47C177.873 25.5433 177.87 25.6267 177.863 25.72H173.743V25.01H176.883C176.863 24.59 176.723 24.2633 176.463 24.03C176.203 23.79 175.88 23.67 175.493 23.67C175.22 23.67 174.97 23.7333 174.743 23.86C174.517 23.98 174.333 24.16 174.193 24.4C174.06 24.6333 173.993 24.93 173.993 25.29V25.57C173.993 25.9433 174.06 26.26 174.193 26.52C174.333 26.7733 174.517 26.9667 174.743 27.1C174.97 27.2267 175.217 27.29 175.483 27.29C175.803 27.29 176.067 27.22 176.273 27.08C176.48 26.94 176.633 26.75 176.733 26.51H177.733C177.647 26.8167 177.5 27.0933 177.293 27.34C177.087 27.58 176.83 27.77 176.523 27.91C176.223 28.05 175.877 28.12 175.483 28.12ZM180.664 28.12C180.251 28.12 179.908 28.05 179.634 27.91C179.361 27.77 179.158 27.5833 179.024 27.35C178.891 27.11 178.824 26.8533 178.824 26.58C178.824 26.2467 178.911 25.9633 179.084 25.73C179.258 25.49 179.504 25.3067 179.824 25.18C180.144 25.0533 180.528 24.99 180.974 24.99H182.284C182.284 24.6967 182.241 24.4533 182.154 24.26C182.068 24.0667 181.938 23.9233 181.764 23.83C181.598 23.73 181.384 23.68 181.124 23.68C180.824 23.68 180.568 23.7533 180.354 23.9C180.141 24.04 180.008 24.25 179.954 24.53H178.954C178.994 24.1767 179.114 23.8767 179.314 23.63C179.521 23.3767 179.784 23.1833 180.104 23.05C180.424 22.91 180.764 22.84 181.124 22.84C181.598 22.84 181.994 22.9233 182.314 23.09C182.634 23.2567 182.874 23.4933 183.034 23.8C183.201 24.1 183.284 24.46 183.284 24.88V28H182.414L182.334 27.15C182.261 27.2833 182.174 27.41 182.074 27.53C181.974 27.65 181.854 27.7533 181.714 27.84C181.581 27.9267 181.424 27.9933 181.244 28.04C181.071 28.0933 180.878 28.12 180.664 28.12ZM180.854 27.31C181.068 27.31 181.261 27.2667 181.434 27.18C181.608 27.0933 181.754 26.9767 181.874 26.83C182.001 26.6767 182.094 26.5067 182.154 26.32C182.221 26.1267 182.258 25.93 182.264 25.73V25.7H181.074C180.788 25.7 180.554 25.7367 180.374 25.81C180.201 25.8767 180.074 25.97 179.994 26.09C179.914 26.21 179.874 26.35 179.874 26.51C179.874 26.6767 179.911 26.82 179.984 26.94C180.064 27.0533 180.178 27.1433 180.324 27.21C180.471 27.2767 180.648 27.31 180.854 27.31ZM184.561 28V22.96H185.461L185.551 23.91C185.664 23.6833 185.811 23.4933 185.991 23.34C186.171 23.18 186.381 23.0567 186.621 22.97C186.868 22.8833 187.148 22.84 187.461 22.84V23.9H187.101C186.894 23.9 186.698 23.9267 186.511 23.98C186.324 24.0267 186.158 24.11 186.011 24.23C185.871 24.35 185.761 24.5133 185.681 24.72C185.601 24.9267 185.561 25.1833 185.561 25.49V28H184.561ZM193.178 28.12C192.698 28.12 192.274 28.0067 191.908 27.78C191.541 27.5467 191.254 27.2333 191.048 26.84C190.848 26.44 190.748 25.9867 190.748 25.48C190.748 24.9667 190.848 24.5133 191.048 24.12C191.254 23.7267 191.541 23.4167 191.908 23.19C192.281 22.9567 192.708 22.84 193.188 22.84C193.581 22.84 193.928 22.92 194.228 23.08C194.528 23.2333 194.761 23.4533 194.928 23.74V20.8H195.928V28H195.028L194.928 27.22C194.828 27.3733 194.698 27.52 194.538 27.66C194.378 27.7933 194.184 27.9033 193.958 27.99C193.731 28.0767 193.471 28.12 193.178 28.12ZM193.338 27.25C193.651 27.25 193.928 27.1767 194.168 27.03C194.408 26.8833 194.591 26.6767 194.718 26.41C194.851 26.1433 194.918 25.8333 194.918 25.48C194.918 25.1267 194.851 24.82 194.718 24.56C194.591 24.2933 194.408 24.0867 194.168 23.94C193.928 23.7867 193.651 23.71 193.338 23.71C193.038 23.71 192.768 23.7867 192.528 23.94C192.288 24.0867 192.101 24.2933 191.968 24.56C191.834 24.82 191.768 25.1267 191.768 25.48C191.768 25.8333 191.834 26.1433 191.968 26.41C192.101 26.6767 192.288 26.8833 192.528 27.03C192.768 27.1767 193.038 27.25 193.338 27.25ZM197.365 28V22.96H198.365V28H197.365ZM197.875 22.01C197.682 22.01 197.522 21.95 197.395 21.83C197.275 21.71 197.215 21.5567 197.215 21.37C197.215 21.19 197.275 21.0433 197.395 20.93C197.522 20.81 197.682 20.75 197.875 20.75C198.062 20.75 198.219 20.81 198.345 20.93C198.472 21.0433 198.535 21.19 198.535 21.37C198.535 21.5567 198.472 21.71 198.345 21.83C198.219 21.95 198.062 22.01 197.875 22.01ZM201.745 28.12C201.319 28.12 200.945 28.05 200.625 27.91C200.305 27.77 200.052 27.5733 199.865 27.32C199.679 27.0667 199.565 26.77 199.525 26.43H200.545C200.579 26.59 200.642 26.7367 200.735 26.87C200.835 27.0033 200.969 27.11 201.135 27.19C201.309 27.27 201.512 27.31 201.745 27.31C201.965 27.31 202.145 27.28 202.285 27.22C202.432 27.1533 202.539 27.0667 202.605 26.96C202.672 26.8467 202.705 26.7267 202.705 26.6C202.705 26.4133 202.659 26.2733 202.565 26.18C202.479 26.08 202.345 26.0033 202.165 25.95C201.992 25.89 201.782 25.8367 201.535 25.79C201.302 25.75 201.075 25.6967 200.855 25.63C200.642 25.5567 200.449 25.4667 200.275 25.36C200.109 25.2533 199.975 25.12 199.875 24.96C199.775 24.7933 199.725 24.59 199.725 24.35C199.725 24.0633 199.802 23.8067 199.955 23.58C200.109 23.3467 200.325 23.1667 200.605 23.04C200.892 22.9067 201.229 22.84 201.615 22.84C202.175 22.84 202.625 22.9733 202.965 23.24C203.305 23.5067 203.505 23.8833 203.565 24.37H202.595C202.569 24.1433 202.469 23.97 202.295 23.85C202.122 23.7233 201.892 23.66 201.605 23.66C201.319 23.66 201.099 23.7167 200.945 23.83C200.792 23.9433 200.715 24.0933 200.715 24.28C200.715 24.4 200.759 24.5067 200.845 24.6C200.932 24.6933 201.059 24.7733 201.225 24.84C201.399 24.9 201.609 24.9567 201.855 25.01C202.209 25.0767 202.525 25.16 202.805 25.26C203.085 25.36 203.309 25.5067 203.475 25.7C203.642 25.8933 203.725 26.17 203.725 26.53C203.732 26.8433 203.652 27.12 203.485 27.36C203.325 27.6 203.095 27.7867 202.795 27.92C202.502 28.0533 202.152 28.12 201.745 28.12ZM204.903 28V20.8H205.903V23.78C206.069 23.4867 206.299 23.2567 206.593 23.09C206.893 22.9233 207.223 22.84 207.583 22.84C207.983 22.84 208.326 22.9233 208.613 23.09C208.899 23.25 209.119 23.4933 209.273 23.82C209.426 24.14 209.503 24.5433 209.503 25.03V28H208.513V25.13C208.513 24.6633 208.413 24.31 208.213 24.07C208.013 23.8233 207.716 23.7 207.323 23.7C207.056 23.7 206.816 23.7633 206.603 23.89C206.389 24.0167 206.219 24.2033 206.093 24.45C205.966 24.69 205.903 24.9833 205.903 25.33V28H204.903ZM215.29 28.12C214.863 28.12 214.49 28.05 214.17 27.91C213.85 27.77 213.597 27.5733 213.41 27.32C213.223 27.0667 213.11 26.77 213.07 26.43H214.09C214.123 26.59 214.187 26.7367 214.28 26.87C214.38 27.0033 214.513 27.11 214.68 27.19C214.853 27.27 215.057 27.31 215.29 27.31C215.51 27.31 215.69 27.28 215.83 27.22C215.977 27.1533 216.083 27.0667 216.15 26.96C216.217 26.8467 216.25 26.7267 216.25 26.6C216.25 26.4133 216.203 26.2733 216.11 26.18C216.023 26.08 215.89 26.0033 215.71 25.95C215.537 25.89 215.327 25.8367 215.08 25.79C214.847 25.75 214.62 25.6967 214.4 25.63C214.187 25.5567 213.993 25.4667 213.82 25.36C213.653 25.2533 213.52 25.12 213.42 24.96C213.32 24.7933 213.27 24.59 213.27 24.35C213.27 24.0633 213.347 23.8067 213.5 23.58C213.653 23.3467 213.87 23.1667 214.15 23.04C214.437 22.9067 214.773 22.84 215.16 22.84C215.72 22.84 216.17 22.9733 216.51 23.24C216.85 23.5067 217.05 23.8833 217.11 24.37H216.14C216.113 24.1433 216.013 23.97 215.84 23.85C215.667 23.7233 215.437 23.66 215.15 23.66C214.863 23.66 214.643 23.7167 214.49 23.83C214.337 23.9433 214.26 24.0933 214.26 24.28C214.26 24.4 214.303 24.5067 214.39 24.6C214.477 24.6933 214.603 24.7733 214.77 24.84C214.943 24.9 215.153 24.9567 215.4 25.01C215.753 25.0767 216.07 25.16 216.35 25.26C216.63 25.36 216.853 25.5067 217.02 25.7C217.187 25.8933 217.27 26.17 217.27 26.53C217.277 26.8433 217.197 27.12 217.03 27.36C216.87 27.6 216.64 27.7867 216.34 27.92C216.047 28.0533 215.697 28.12 215.29 28.12ZM218.448 28V22.96H219.348L219.408 23.82C219.568 23.52 219.794 23.2833 220.088 23.11C220.381 22.93 220.718 22.84 221.098 22.84C221.498 22.84 221.841 22.92 222.128 23.08C222.414 23.24 222.638 23.4833 222.798 23.81C222.958 24.13 223.038 24.5333 223.038 25.02V28H222.038V25.12C222.038 24.6533 221.934 24.3 221.728 24.06C221.521 23.82 221.221 23.7 220.828 23.7C220.568 23.7 220.334 23.7633 220.128 23.89C219.921 24.01 219.754 24.19 219.628 24.43C219.508 24.67 219.448 24.9633 219.448 25.31V28H218.448ZM225.987 28.12C225.573 28.12 225.23 28.05 224.957 27.91C224.683 27.77 224.48 27.5833 224.347 27.35C224.213 27.11 224.147 26.8533 224.147 26.58C224.147 26.2467 224.233 25.9633 224.407 25.73C224.58 25.49 224.827 25.3067 225.147 25.18C225.467 25.0533 225.85 24.99 226.297 24.99H227.607C227.607 24.6967 227.563 24.4533 227.477 24.26C227.39 24.0667 227.26 23.9233 227.087 23.83C226.92 23.73 226.707 23.68 226.447 23.68C226.147 23.68 225.89 23.7533 225.677 23.9C225.463 24.04 225.33 24.25 225.277 24.53H224.277C224.317 24.1767 224.437 23.8767 224.637 23.63C224.843 23.3767 225.107 23.1833 225.427 23.05C225.747 22.91 226.087 22.84 226.447 22.84C226.92 22.84 227.317 22.9233 227.637 23.09C227.957 23.2567 228.197 23.4933 228.357 23.8C228.523 24.1 228.607 24.46 228.607 24.88V28H227.737L227.657 27.15C227.583 27.2833 227.497 27.41 227.397 27.53C227.297 27.65 227.177 27.7533 227.037 27.84C226.903 27.9267 226.747 27.9933 226.567 28.04C226.393 28.0933 226.2 28.12 225.987 28.12ZM226.177 27.31C226.39 27.31 226.583 27.2667 226.757 27.18C226.93 27.0933 227.077 26.9767 227.197 26.83C227.323 26.6767 227.417 26.5067 227.477 26.32C227.543 26.1267 227.58 25.93 227.587 25.73V25.7H226.397C226.11 25.7 225.877 25.7367 225.697 25.81C225.523 25.8767 225.397 25.97 225.317 26.09C225.237 26.21 225.197 26.35 225.197 26.51C225.197 26.6767 225.233 26.82 225.307 26.94C225.387 27.0533 225.5 27.1433 225.647 27.21C225.793 27.2767 225.97 27.31 226.177 27.31ZM229.883 30.2V22.96H230.783L230.883 23.74C230.99 23.5867 231.123 23.4433 231.283 23.31C231.443 23.17 231.633 23.0567 231.853 22.97C232.08 22.8833 232.343 22.84 232.643 22.84C233.123 22.84 233.543 22.9567 233.903 23.19C234.27 23.4233 234.553 23.74 234.753 24.14C234.96 24.5333 235.063 24.9833 235.063 25.49C235.063 25.9967 234.96 26.45 234.753 26.85C234.546 27.2433 234.26 27.5533 233.893 27.78C233.533 28.0067 233.113 28.12 232.633 28.12C232.24 28.12 231.893 28.0433 231.593 27.89C231.293 27.73 231.056 27.51 230.883 27.23V30.2H229.883ZM232.473 27.25C232.78 27.25 233.05 27.1767 233.283 27.03C233.523 26.8833 233.71 26.6767 233.843 26.41C233.983 26.1433 234.053 25.8333 234.053 25.48C234.053 25.1267 233.983 24.82 233.843 24.56C233.71 24.2933 233.523 24.0867 233.283 23.94C233.05 23.7867 232.78 23.71 232.473 23.71C232.16 23.71 231.883 23.7867 231.643 23.94C231.41 24.0867 231.226 24.2933 231.093 24.56C230.96 24.82 230.893 25.1267 230.893 25.48C230.893 25.8333 230.96 26.1433 231.093 26.41C231.226 26.6767 231.41 26.8833 231.643 27.03C231.883 27.1767 232.16 27.25 232.473 27.25ZM238.181 28.12C237.754 28.12 237.381 28.05 237.061 27.91C236.741 27.77 236.487 27.5733 236.301 27.32C236.114 27.0667 236.001 26.77 235.961 26.43H236.981C237.014 26.59 237.077 26.7367 237.171 26.87C237.271 27.0033 237.404 27.11 237.571 27.19C237.744 27.27 237.947 27.31 238.181 27.31C238.401 27.31 238.581 27.28 238.721 27.22C238.867 27.1533 238.974 27.0667 239.041 26.96C239.107 26.8467 239.141 26.7267 239.141 26.6C239.141 26.4133 239.094 26.2733 239.001 26.18C238.914 26.08 238.781 26.0033 238.601 25.95C238.427 25.89 238.217 25.8367 237.971 25.79C237.737 25.75 237.511 25.6967 237.291 25.63C237.077 25.5567 236.884 25.4667 236.711 25.36C236.544 25.2533 236.411 25.12 236.311 24.96C236.211 24.7933 236.161 24.59 236.161 24.35C236.161 24.0633 236.237 23.8067 236.391 23.58C236.544 23.3467 236.761 23.1667 237.041 23.04C237.327 22.9067 237.664 22.84 238.051 22.84C238.611 22.84 239.061 22.9733 239.401 23.24C239.741 23.5067 239.941 23.8833 240.001 24.37H239.031C239.004 24.1433 238.904 23.97 238.731 23.85C238.557 23.7233 238.327 23.66 238.041 23.66C237.754 23.66 237.534 23.7167 237.381 23.83C237.227 23.9433 237.151 24.0933 237.151 24.28C237.151 24.4 237.194 24.5067 237.281 24.6C237.367 24.6933 237.494 24.7733 237.661 24.84C237.834 24.9 238.044 24.9567 238.291 25.01C238.644 25.0767 238.961 25.16 239.241 25.26C239.521 25.36 239.744 25.5067 239.911 25.7C240.077 25.8933 240.161 26.17 240.161 26.53C240.167 26.8433 240.087 27.12 239.921 27.36C239.761 27.6 239.531 27.7867 239.231 27.92C238.937 28.0533 238.587 28.12 238.181 28.12ZM241.338 28V20.8H242.338V23.78C242.505 23.4867 242.735 23.2567 243.028 23.09C243.328 22.9233 243.658 22.84 244.018 22.84C244.418 22.84 244.762 22.9233 245.048 23.09C245.335 23.25 245.555 23.4933 245.708 23.82C245.862 24.14 245.938 24.5433 245.938 25.03V28H244.948V25.13C244.948 24.6633 244.848 24.31 244.648 24.07C244.448 23.8233 244.152 23.7 243.758 23.7C243.492 23.7 243.252 23.7633 243.038 23.89C242.825 24.0167 242.655 24.2033 242.528 24.45C242.402 24.69 242.338 24.9833 242.338 25.33V28H241.338ZM249.517 28.12C249.044 28.12 248.617 28.01 248.237 27.79C247.864 27.57 247.567 27.2633 247.347 26.87C247.134 26.47 247.027 26.01 247.027 25.49C247.027 24.9567 247.137 24.4933 247.357 24.1C247.577 23.7 247.877 23.39 248.257 23.17C248.637 22.95 249.064 22.84 249.537 22.84C250.017 22.84 250.444 22.95 250.817 23.17C251.19 23.39 251.484 23.6967 251.697 24.09C251.917 24.4833 252.027 24.9467 252.027 25.48C252.027 26.0133 251.917 26.4767 251.697 26.87C251.484 27.2633 251.187 27.57 250.807 27.79C250.427 28.01 249.997 28.12 249.517 28.12ZM249.517 27.26C249.79 27.26 250.037 27.1933 250.257 27.06C250.484 26.9267 250.664 26.73 250.797 26.47C250.937 26.2033 251.007 25.8733 251.007 25.48C251.007 25.0867 250.94 24.76 250.807 24.5C250.674 24.2333 250.494 24.0333 250.267 23.9C250.047 23.7667 249.804 23.7 249.537 23.7C249.27 23.7 249.024 23.7667 248.797 23.9C248.57 24.0333 248.387 24.2333 248.247 24.5C248.114 24.76 248.047 25.0867 248.047 25.48C248.047 25.8733 248.114 26.2033 248.247 26.47C248.387 26.73 248.567 26.9267 248.787 27.06C249.014 27.1933 249.257 27.26 249.517 27.26ZM255.088 28C254.768 28 254.491 27.95 254.258 27.85C254.025 27.75 253.845 27.5833 253.718 27.35C253.591 27.1167 253.528 26.8 253.528 26.4V23.81H252.658V22.96H253.528L253.648 21.7H254.528V22.96H255.958V23.81H254.528V26.41C254.528 26.6967 254.588 26.8933 254.708 27C254.828 27.1 255.035 27.15 255.328 27.15H255.908V28H255.088Z" fill="#565656"/>
<path d="M42 62.2343C42 60.7522 42 60.0111 42.2884 59.445C42.5422 58.947 42.947 58.5422 43.445 58.2884C44.0111 58 44.7522 58 46.2343 58H301.766C303.248 58 303.989 58 304.555 58.2884C305.053 58.5422 305.458 58.947 305.712 59.445C306 60.0111 306 60.7522 306 62.2343V67.1743H42V62.2343Z" fill="#ABD0F8"/>
<path fill-rule="evenodd" clip-rule="evenodd" d="M46.587 63.6464C47.1716 63.6464 47.6456 63.1725 47.6456 62.5879C47.6456 62.0032 47.1716 61.5293 46.587 61.5293C46.0024 61.5293 45.5284 62.0032 45.5284 62.5879C45.5284 63.1725 46.0024 63.6464 46.587 63.6464Z" fill="#EC6A5E"/>
<path d="M46.587 61.5732C47.1473 61.5733 47.6017 62.0276 47.6017 62.5879C47.6017 63.1481 47.1473 63.6025 46.587 63.6025C46.0268 63.6025 45.5724 63.1482 45.5724 62.5879C45.5724 62.0276 46.0268 61.5732 46.587 61.5732Z" stroke="black" stroke-opacity="0.12" stroke-width="0.0882144"/>
<path fill-rule="evenodd" clip-rule="evenodd" d="M50.1156 63.6464C50.7002 63.6464 51.1742 63.1725 51.1742 62.5879C51.1742 62.0032 50.7002 61.5293 50.1156 61.5293C49.5309 61.5293 49.057 62.0032 49.057 62.5879C49.057 63.1725 49.5309 63.6464 50.1156 63.6464Z" fill="#F5BF4F"/>
<path d="M50.1156 61.5732C50.6759 61.5733 51.1302 62.0276 51.1302 62.5879C51.1302 63.1481 50.6759 63.6025 50.1156 63.6025C49.5553 63.6025 49.101 63.1482 49.101 62.5879C49.101 62.0276 49.5553 61.5732 50.1156 61.5732Z" stroke="black" stroke-opacity="0.12" stroke-width="0.0882144"/>
<path fill-rule="evenodd" clip-rule="evenodd" d="M53.6441 63.6464C54.2288 63.6464 54.7027 63.1725 54.7027 62.5879C54.7027 62.0032 54.2288 61.5293 53.6441 61.5293C53.0595 61.5293 52.5856 62.0032 52.5856 62.5879C52.5856 63.1725 53.0595 63.6464 53.6441 63.6464Z" fill="#61C554"/>
<path d="M53.6442 61.5732C54.2044 61.5733 54.6588 62.0276 54.6588 62.5879C54.6588 63.1481 54.2044 63.6025 53.6442 63.6025C53.0839 63.6025 52.6295 63.1482 52.6295 62.5879C52.6295 62.0276 53.0839 61.5732 53.6442 61.5732Z" stroke="black" stroke-opacity="0.12" stroke-width="0.0882144"/>
<path opacity="0.7" d="M59.7703 64.1161C59.4642 64.1161 59.3105 63.9653 59.3105 63.6621V61.874C59.3105 61.5708 59.4642 61.42 59.7703 61.42H62.3039C62.6114 61.42 62.7637 61.5723 62.7637 61.874V63.6621C62.7637 63.9638 62.6114 64.1161 62.3039 64.1161H59.7703ZM59.7732 63.8804H60.4264V61.6558H59.7732C59.6268 61.6558 59.5462 61.7334 59.5462 61.8857V63.6504C59.5462 63.8027 59.6268 63.8804 59.7732 63.8804ZM62.301 61.6558H60.6563V63.8804H62.301C62.4459 63.8804 62.528 63.8027 62.528 63.6504V61.8857C62.528 61.7334 62.4459 61.6558 62.301 61.6558ZM60.1452 62.1991H59.8304C59.7864 62.1991 59.7483 62.1596 59.7483 62.1171C59.7483 62.0732 59.7864 62.0351 59.8304 62.0351H60.1452C60.1892 62.0351 60.2287 62.0732 60.2287 62.1171C60.2287 62.1596 60.1892 62.1991 60.1452 62.1991ZM60.1452 62.5784H59.8304C59.7864 62.5784 59.7483 62.5389 59.7483 62.4949C59.7483 62.451 59.7864 62.4144 59.8304 62.4144H60.1452C60.1892 62.4144 60.2287 62.451 60.2287 62.4949C60.2287 62.5389 60.1892 62.5784 60.1452 62.5784ZM60.1452 62.9563H59.8304C59.7864 62.9563 59.7483 62.9196 59.7483 62.8757C59.7483 62.8318 59.7864 62.7937 59.8304 62.7937H60.1452C60.1892 62.7937 60.2287 62.8318 60.2287 62.8757C60.2287 62.9196 60.1892 62.9563 60.1452 62.9563Z" fill="#3D3D3D"/>
<rect opacity="0.1" x="64.6427" y="61.2354" width="0.176429" height="3.17572" fill="#3D3D3D"/>
<path opacity="0.6" d="M66.3492 63.7371C66.3064 63.7371 66.272 63.7219 66.2361 63.6854L65.7385 63.1775C65.713 63.1506 65.7006 63.121 65.7006 63.0844C65.7006 63.01 65.7613 62.948 65.835 62.948C65.8722 62.948 65.9067 62.9638 65.935 62.9928L66.3505 63.4221L66.764 62.9928C66.7923 62.9632 66.8268 62.948 66.8633 62.948C66.937 62.948 66.9977 63.01 66.9977 63.0844C66.9977 63.121 66.986 63.1513 66.9598 63.1768L66.4629 63.6854C66.427 63.7212 66.3933 63.7371 66.3492 63.7371Z" fill="#3D3D3D"/>
<path opacity="0.7" d="M70.2396 62.7659C70.2396 62.7293 70.2528 62.6956 70.2806 62.6692L71.4419 61.5328C71.4668 61.5079 71.499 61.4947 71.5371 61.4947C71.6133 61.4947 71.6719 61.5518 71.6719 61.628C71.6719 61.6646 71.6557 61.6983 71.6323 61.7232L70.5662 62.7659L71.6323 63.8086C71.6557 63.8335 71.6719 63.8657 71.6719 63.9038C71.6719 63.9799 71.6133 64.0371 71.5371 64.0371C71.499 64.0371 71.4668 64.0239 71.4419 63.9975L70.2806 62.8625C70.2528 62.8347 70.2396 62.8025 70.2396 62.7659Z" fill="#3D3D3D"/>
<path opacity="0.7" d="M282.638 64.2597C281.822 64.2597 281.144 63.5816 281.144 62.7659C281.144 61.9487 281.82 61.2721 282.636 61.2721C283.453 61.2721 284.131 61.9487 284.131 62.7659C284.131 63.5816 283.455 64.2597 282.638 64.2597ZM282.638 64.0107C283.329 64.0107 283.882 63.4571 283.882 62.7659C283.882 62.0746 283.327 61.5211 282.636 61.5211C281.945 61.5211 281.394 62.0746 281.394 62.7659C281.394 63.4571 281.946 64.0107 282.638 64.0107ZM282.638 62.0204C282.702 62.0204 282.747 62.0658 282.747 62.1303V62.8625L282.736 63.173L282.885 62.9958L283.058 62.8201C283.077 62.7981 283.103 62.7878 283.136 62.7878C283.196 62.7878 283.242 62.8332 283.242 62.8933C283.242 62.924 283.231 62.9504 283.212 62.9694L282.724 63.4557C282.696 63.4835 282.67 63.4981 282.638 63.4981C282.607 63.4981 282.582 63.4849 282.553 63.4557L282.064 62.9694C282.045 62.9504 282.036 62.924 282.036 62.8933C282.036 62.8332 282.081 62.7878 282.141 62.7878C282.172 62.7878 282.198 62.7996 282.219 62.8201L282.393 62.9958L282.54 63.1715L282.528 62.8625V62.1303C282.528 62.0658 282.575 62.0204 282.638 62.0204Z" fill="#3D3D3D"/>
<path opacity="0.7" d="M290.788 63.1642C290.725 63.1642 290.673 63.1115 290.673 63.05V61.5459L290.682 61.3263L290.582 61.4303L290.361 61.6675C290.34 61.6909 290.308 61.7027 290.28 61.7027C290.219 61.7027 290.175 61.6587 290.175 61.5987C290.175 61.5679 290.187 61.5445 290.208 61.5225L290.703 61.0451C290.734 61.0158 290.759 61.0056 290.788 61.0056C290.819 61.0056 290.844 61.0158 290.873 61.0451L291.368 61.5225C291.39 61.5445 291.404 61.5679 291.404 61.5987C291.404 61.6587 291.357 61.7027 291.297 61.7027C291.267 61.7027 291.238 61.6909 291.218 61.6675L290.995 61.4303L290.897 61.3263L290.906 61.5459V63.05C290.906 63.1115 290.851 63.1642 290.788 63.1642ZM289.949 64.3109C289.643 64.3109 289.489 64.1586 289.489 63.8569V62.3954C289.489 62.0937 289.643 61.9414 289.949 61.9414H290.39V62.1771H289.952C289.806 62.1771 289.725 62.2562 289.725 62.4085V63.8437C289.725 63.9961 289.806 64.0751 289.952 64.0751H291.625C291.77 64.0751 291.853 63.9961 291.853 63.8437V62.4085C291.853 62.2562 291.77 62.1771 291.625 62.1771H291.188V61.9414H291.629C291.935 61.9414 292.089 62.0937 292.089 62.3954V63.8569C292.089 64.1586 291.935 64.3109 291.629 64.3109H289.949Z" fill="#3D3D3D"/>
<path opacity="0.7" d="M297.724 62.7659C297.724 62.6941 297.784 62.6341 297.854 62.6341H298.802V61.688C298.802 61.6177 298.86 61.5577 298.932 61.5577C299.004 61.5577 299.064 61.6177 299.064 61.688V62.6341H300.01C300.08 62.6341 300.14 62.6941 300.14 62.7659C300.14 62.8376 300.08 62.8962 300.01 62.8962H299.064V63.8437C299.064 63.914 299.004 63.9741 298.932 63.9741C298.86 63.9741 298.802 63.914 298.802 63.8437V62.8962H297.854C297.784 62.8962 297.724 62.8376 297.724 62.7659Z" fill="#3D3D3D"/>
<rect x="131.626" y="60.1172" width="84.6858" height="4.94001" rx="1.05857" fill="#3D3D3D" fill-opacity="0.1"/>
<rect x="168.26" y="61.084" width="2.82975" height="2.82975" rx="1.41488" fill="white"/>
<circle cx="169.664" cy="62.4988" r="1.09517" fill="white" stroke="#FAD87D" stroke-width="0.0680229"/>
<path d="M169.272 62.3682H169.269" stroke="#80643C" stroke-width="0.192612" stroke-linecap="round"/>
<path d="M170.04 62.23H170.042" stroke="#80643C" stroke-width="0.192612" stroke-linecap="round"/>
<path fill-rule="evenodd" clip-rule="evenodd" d="M169.642 62.2513C169.652 62.2491 169.663 62.2536 169.668 62.2625L169.752 62.392L169.904 62.4177C169.915 62.4195 169.923 62.4275 169.925 62.4379C169.927 62.4483 169.923 62.4589 169.914 62.4647L169.784 62.5485L169.759 62.7006C169.757 62.7111 169.749 62.7194 169.739 62.7216C169.728 62.7237 169.718 62.7192 169.712 62.7103L169.628 62.5808L169.476 62.5551C169.465 62.5533 169.457 62.5453 169.455 62.5349C169.453 62.5246 169.457 62.5139 169.466 62.5082L169.596 62.4243L169.621 62.2722C169.623 62.2617 169.631 62.2534 169.642 62.2513Z" fill="url(#paint2_linear_426_60708)"/>
<path d="M169.248 62.8201C169.458 62.9678 169.978 63.0823 170.244 62.5882" stroke="#80643C" stroke-width="0.13758" stroke-linecap="round"/>
<path d="M172.863 62.999V61.27H173.372C173.574 61.27 173.741 61.3054 173.871 61.3762C174.002 61.4454 174.1 61.545 174.162 61.6751C174.226 61.8035 174.258 61.9583 174.258 62.1395C174.258 62.3173 174.226 62.4704 174.162 62.5989C174.1 62.7273 174.002 62.8261 173.871 62.8953C173.741 62.9644 173.574 62.999 173.372 62.999H172.863ZM173.07 62.8261H173.367C173.535 62.8261 173.668 62.799 173.767 62.7446C173.866 62.6886 173.936 62.6096 173.979 62.5075C174.022 62.4038 174.044 62.2811 174.044 62.1395C174.044 61.9946 174.022 61.8702 173.979 61.7665C173.936 61.6628 173.866 61.5829 173.767 61.5269C173.668 61.4709 173.535 61.4429 173.367 61.4429H173.07V62.8261ZM174.608 62.999V61.7541H174.815V62.999H174.608ZM174.712 61.4899C174.67 61.4899 174.636 61.4767 174.608 61.4503C174.582 61.4223 174.568 61.3878 174.568 61.3466C174.568 61.3054 174.582 61.2725 174.608 61.2478C174.636 61.2214 174.67 61.2083 174.712 61.2083C174.751 61.2083 174.785 61.2214 174.813 61.2478C174.841 61.2725 174.855 61.3054 174.855 61.3466C174.855 61.3878 174.841 61.4223 174.813 61.4503C174.785 61.4767 174.751 61.4899 174.712 61.4899ZM175.688 63.0287C175.584 63.0287 175.494 63.0114 175.416 62.9768C175.34 62.9422 175.279 62.8945 175.233 62.8335C175.189 62.771 175.162 62.6977 175.152 62.6137H175.364C175.372 62.6565 175.39 62.696 175.416 62.7323C175.442 62.7685 175.478 62.7981 175.522 62.8212C175.568 62.8426 175.624 62.8533 175.69 62.8533C175.748 62.8533 175.796 62.8451 175.834 62.8286C175.871 62.8105 175.899 62.7866 175.918 62.757C175.937 62.7273 175.947 62.6952 175.947 62.6606C175.947 62.6096 175.935 62.5709 175.91 62.5445C175.887 62.5182 175.852 62.4976 175.806 62.4828C175.76 62.4663 175.704 62.4523 175.638 62.4408C175.584 62.4309 175.531 62.4177 175.478 62.4013C175.425 62.3848 175.378 62.3634 175.337 62.3371C175.296 62.3091 175.263 62.2753 175.238 62.2358C175.215 62.1963 175.204 62.1477 175.204 62.0901C175.204 62.0193 175.222 61.9567 175.258 61.9023C175.294 61.8464 175.346 61.8027 175.414 61.7714C175.483 61.7401 175.563 61.7245 175.653 61.7245C175.787 61.7245 175.894 61.7566 175.977 61.8208C176.059 61.8851 176.108 61.9781 176.123 62.0999H175.918C175.909 62.0374 175.882 61.9888 175.836 61.9542C175.792 61.918 175.73 61.8999 175.651 61.8999C175.573 61.8999 175.514 61.9155 175.473 61.9468C175.433 61.9781 175.414 62.0193 175.414 62.0703C175.414 62.1032 175.424 62.1329 175.446 62.1592C175.469 62.1839 175.502 62.2053 175.545 62.2234C175.589 62.2416 175.643 62.2564 175.708 62.2679C175.79 62.2827 175.865 62.3025 175.932 62.3272C176 62.3519 176.054 62.3889 176.095 62.4383C176.138 62.4861 176.16 62.5544 176.16 62.6433C176.16 62.7207 176.14 62.7882 176.1 62.8459C176.062 62.9035 176.008 62.9488 175.937 62.9817C175.866 63.013 175.783 63.0287 175.688 63.0287ZM176.495 62.999V61.2206H176.703V61.9641C176.744 61.89 176.802 61.8315 176.876 61.7887C176.952 61.7459 177.034 61.7245 177.123 61.7245C177.218 61.7245 177.301 61.7443 177.372 61.7838C177.443 61.8217 177.497 61.8801 177.535 61.9592C177.573 62.0382 177.592 62.1378 177.592 62.258V62.999H177.387V62.2803C177.387 62.1551 177.361 62.0612 177.308 61.9987C177.255 61.9345 177.179 61.9023 177.078 61.9023C177.008 61.9023 176.943 61.9196 176.886 61.9542C176.83 61.9888 176.785 62.0382 176.752 62.1024C176.719 62.1666 176.703 62.2457 176.703 62.3395V62.999H176.495ZM178.053 63.5424L178.357 62.8607H178.285L177.796 61.7541H178.021L178.426 62.7051L178.851 61.7541H179.066L178.27 63.5424H178.053Z" fill="#3D3D3D"/>
<g clip-path="url(#clip0_426_60708)">
<path d="M42 67.1743H306V168.174H42V67.1743Z" fill="#FFF9E8"/>
<g clip-path="url(#clip1_426_60708)">
<rect width="219.948" height="171.376" transform="translate(63.9948 67.1743)" fill="#FFF9E8"/>
<rect x="71.3264" y="78.1719" width="106.278" height="4.86753" rx="2.43377" fill="#F1E1B7"/>
<rect x="71.3264" y="86.2153" width="48.5718" height="45.8225" rx="1.22193" fill="#FFEEBF"/>
<path d="M113.788 128.065C113.822 128.065 113.852 128.087 113.865 128.118L114.042 128.575L114.5 128.753C114.532 128.765 114.552 128.796 114.552 128.829C114.552 128.863 114.532 128.894 114.5 128.906L114.042 129.084L113.865 129.541C113.852 129.572 113.822 129.594 113.788 129.594C113.755 129.594 113.724 129.572 113.712 129.541L113.534 129.084L113.077 128.906C113.046 128.894 113.025 128.863 113.025 128.829C113.025 128.796 113.046 128.765 113.077 128.753L113.534 128.575L113.712 128.118C113.724 128.087 113.755 128.065 113.788 128.065ZM115.621 125.47C115.702 125.47 115.775 125.519 115.804 125.595L116.232 126.692L117.329 127.119C117.405 127.149 117.454 127.222 117.454 127.303C117.454 127.383 117.405 127.456 117.329 127.485L116.232 127.912L115.804 129.01C115.775 129.085 115.702 129.136 115.621 129.136C115.54 129.136 115.468 129.085 115.439 129.01L115.011 127.912L113.913 127.485C113.838 127.456 113.788 127.384 113.788 127.303C113.788 127.222 113.838 127.149 113.913 127.119L115.011 126.692L115.439 125.595C115.468 125.519 115.54 125.47 115.621 125.47Z" fill="url(#paint3_linear_426_60708)"/>
<rect x="71.3263" y="134.482" width="11.4068" height="4.72965" rx="2.36482" fill="#F1E1B7"/>
<rect x="71.3264" y="141.655" width="48.5718" height="4.86753" rx="2.43377" fill="#F1E1B7" fill-opacity="0.5"/>
<rect x="123.564" y="86.2153" width="48.5718" height="45.8225" rx="1.22193" fill="#FFEEBF"/>
<path d="M166.026 128.065C166.06 128.065 166.09 128.087 166.102 128.118L166.28 128.575L166.738 128.753C166.769 128.765 166.789 128.796 166.789 128.829C166.789 128.863 166.769 128.894 166.738 128.906L166.28 129.084L166.102 129.541C166.09 129.572 166.06 129.594 166.026 129.594C165.992 129.594 165.962 129.572 165.95 129.541L165.772 129.084L165.314 128.906C165.283 128.894 165.262 128.863 165.262 128.829C165.262 128.796 165.283 128.765 165.314 128.753L165.772 128.575L165.95 128.118C165.962 128.087 165.992 128.065 166.026 128.065ZM167.859 125.47C167.94 125.47 168.012 125.519 168.041 125.595L168.468 126.692L169.567 127.119C169.642 127.149 169.692 127.222 169.692 127.303C169.692 127.383 169.642 127.456 169.567 127.485L168.468 127.912L168.041 129.01C168.012 129.085 167.94 129.136 167.859 129.136C167.778 129.136 167.705 129.085 167.675 129.01L167.248 127.912L166.151 127.485C166.075 127.456 166.026 127.384 166.026 127.303C166.026 127.222 166.075 127.149 166.151 127.119L167.248 126.692L167.675 125.595C167.705 125.519 167.778 125.47 167.859 125.47Z" fill="url(#paint4_linear_426_60708)"/>
<rect x="123.564" y="134.482" width="11.4068" height="4.72965" rx="2.36482" fill="#F1E1B7"/>
<rect x="123.564" y="141.655" width="48.5718" height="4.86753" rx="2.43377" fill="#F1E1B7" fill-opacity="0.5"/>
<rect x="175.802" y="86.2153" width="48.5718" height="45.8225" rx="1.22193" fill="#FFEEBF"/>
<path d="M218.263 128.065C218.297 128.065 218.327 128.087 218.34 128.118L218.517 128.575L218.975 128.753C219.007 128.765 219.027 128.796 219.027 128.829C219.027 128.863 219.007 128.894 218.975 128.906L218.517 129.084L218.34 129.541C218.327 129.572 218.297 129.594 218.263 129.594C218.23 129.594 218.199 129.572 218.187 129.541L218.01 129.084L217.552 128.906C217.52 128.894 217.5 128.863 217.5 128.829C217.5 128.796 217.52 128.765 217.552 128.753L218.01 128.575L218.187 128.118C218.199 128.087 218.23 128.065 218.263 128.065ZM220.096 125.47C220.177 125.47 220.25 125.519 220.279 125.595L220.706 126.692L221.804 127.119C221.88 127.149 221.929 127.222 221.929 127.303C221.929 127.383 221.88 127.456 221.804 127.485L220.706 127.912L220.279 129.01C220.25 129.085 220.177 129.136 220.096 129.136C220.015 129.136 219.942 129.085 219.913 129.01L219.486 127.912L218.388 127.485C218.313 127.456 218.264 127.384 218.263 127.303C218.263 127.222 218.313 127.149 218.388 127.119L219.486 126.692L219.913 125.595C219.942 125.519 220.015 125.47 220.096 125.47Z" fill="url(#paint5_linear_426_60708)"/>
<rect x="175.802" y="134.482" width="11.4068" height="4.72965" rx="2.36482" fill="#F1E1B7"/>
<rect x="175.802" y="141.655" width="48.5718" height="4.86753" rx="2.43377" fill="#F1E1B7" fill-opacity="0.5"/>
<rect x="228.039" y="86.2153" width="48.5718" height="45.8225" rx="1.22193" fill="#FFEEBF"/>
<path d="M270.501 128.065C270.535 128.065 270.565 128.087 270.577 128.118L270.755 128.575L271.213 128.753C271.244 128.765 271.265 128.796 271.265 128.829C271.265 128.863 271.244 128.894 271.213 128.906L270.755 129.084L270.577 129.541C270.565 129.572 270.535 129.594 270.501 129.594C270.467 129.594 270.437 129.572 270.425 129.541L270.247 129.084L269.789 128.906C269.758 128.894 269.738 128.863 269.738 128.829C269.738 128.796 269.758 128.765 269.789 128.753L270.247 128.575L270.425 128.118C270.437 128.087 270.467 128.065 270.501 128.065ZM272.334 125.47C272.415 125.47 272.487 125.519 272.517 125.595L272.944 126.692L274.042 127.119C274.118 127.149 274.167 127.222 274.167 127.303C274.167 127.383 274.117 127.456 274.042 127.485L272.944 127.912L272.517 129.01C272.488 129.085 272.415 129.136 272.334 129.136C272.253 129.136 272.18 129.085 272.151 129.01L271.724 127.912L270.626 127.485C270.551 127.456 270.501 127.384 270.501 127.303C270.501 127.222 270.551 127.149 270.626 127.119L271.724 126.692L272.151 125.595C272.18 125.519 272.253 125.47 272.334 125.47Z" fill="url(#paint6_linear_426_60708)"/>
<rect x="228.039" y="134.482" width="11.4068" height="4.72965" rx="2.36482" fill="#F1E1B7"/>
<rect x="228.039" y="141.655" width="48.5718" height="4.86753" rx="2.43377" fill="#F1E1B7" fill-opacity="0.5"/>
<rect x="71.3264" y="155.808" width="48.5718" height="45.8225" rx="1.22193" fill="#FFEEBF"/>
<rect x="123.564" y="155.808" width="48.5718" height="45.8225" rx="1.22193" fill="#FFEEBF"/>
<rect x="175.802" y="155.808" width="48.5718" height="45.8225" rx="1.22193" fill="#FFEEBF"/>
<rect x="228.039" y="155.808" width="48.5718" height="45.8225" rx="1.22193" fill="#FFEEBF"/>
</g>
</g>
<path d="M305.5 67.6743V167.674H42.5V67.6743H305.5Z" stroke="#FFECB9"/>
<path d="M42 62.2343C42 60.7522 42 60.0111 42.2884 59.445C42.5422 58.947 42.947 58.5422 43.445 58.2884C44.0111 58 44.7522 58 46.2343 58H301.766C303.248 58 303.989 58 304.555 58.2884C305.053 58.5422 305.458 58.947 305.712 59.445C306 60.0111 306 60.7522 306 62.2343V67.1743H42V62.2343Z" fill="#D3E8FF"/>
<path fill-rule="evenodd" clip-rule="evenodd" d="M46.587 63.6464C47.1716 63.6464 47.6456 63.1725 47.6456 62.5879C47.6456 62.0032 47.1716 61.5293 46.587 61.5293C46.0024 61.5293 45.5284 62.0032 45.5284 62.5879C45.5284 63.1725 46.0024 63.6464 46.587 63.6464Z" fill="#EC6A5E"/>
<path d="M46.587 61.5732C47.1473 61.5733 47.6017 62.0276 47.6017 62.5879C47.6017 63.1481 47.1473 63.6025 46.587 63.6025C46.0268 63.6025 45.5724 63.1482 45.5724 62.5879C45.5724 62.0276 46.0268 61.5732 46.587 61.5732Z" stroke="black" stroke-opacity="0.12" stroke-width="0.0882144"/>
<path fill-rule="evenodd" clip-rule="evenodd" d="M50.1156 63.6464C50.7002 63.6464 51.1742 63.1725 51.1742 62.5879C51.1742 62.0032 50.7002 61.5293 50.1156 61.5293C49.5309 61.5293 49.057 62.0032 49.057 62.5879C49.057 63.1725 49.5309 63.6464 50.1156 63.6464Z" fill="#F5BF4F"/>
<path d="M50.1156 61.5732C50.6759 61.5733 51.1302 62.0276 51.1302 62.5879C51.1302 63.1481 50.6759 63.6025 50.1156 63.6025C49.5553 63.6025 49.101 63.1482 49.101 62.5879C49.101 62.0276 49.5553 61.5732 50.1156 61.5732Z" stroke="black" stroke-opacity="0.12" stroke-width="0.0882144"/>
<path fill-rule="evenodd" clip-rule="evenodd" d="M53.6441 63.6464C54.2288 63.6464 54.7027 63.1725 54.7027 62.5879C54.7027 62.0032 54.2288 61.5293 53.6441 61.5293C53.0595 61.5293 52.5856 62.0032 52.5856 62.5879C52.5856 63.1725 53.0595 63.6464 53.6441 63.6464Z" fill="#61C554"/>
<path d="M53.6442 61.5732C54.2044 61.5733 54.6588 62.0276 54.6588 62.5879C54.6588 63.1481 54.2044 63.6025 53.6442 63.6025C53.0839 63.6025 52.6295 63.1482 52.6295 62.5879C52.6295 62.0276 53.0839 61.5732 53.6442 61.5732Z" stroke="black" stroke-opacity="0.12" stroke-width="0.0882144"/>
<path opacity="0.7" d="M59.7703 64.1161C59.4642 64.1161 59.3105 63.9653 59.3105 63.6621V61.874C59.3105 61.5708 59.4642 61.42 59.7703 61.42H62.3039C62.6114 61.42 62.7637 61.5723 62.7637 61.874V63.6621C62.7637 63.9638 62.6114 64.1161 62.3039 64.1161H59.7703ZM59.7732 63.8804H60.4264V61.6558H59.7732C59.6268 61.6558 59.5462 61.7334 59.5462 61.8857V63.6504C59.5462 63.8027 59.6268 63.8804 59.7732 63.8804ZM62.301 61.6558H60.6563V63.8804H62.301C62.4459 63.8804 62.528 63.8027 62.528 63.6504V61.8857C62.528 61.7334 62.4459 61.6558 62.301 61.6558ZM60.1452 62.1991H59.8304C59.7864 62.1991 59.7483 62.1596 59.7483 62.1171C59.7483 62.0732 59.7864 62.0351 59.8304 62.0351H60.1452C60.1892 62.0351 60.2287 62.0732 60.2287 62.1171C60.2287 62.1596 60.1892 62.1991 60.1452 62.1991ZM60.1452 62.5784H59.8304C59.7864 62.5784 59.7483 62.5389 59.7483 62.4949C59.7483 62.451 59.7864 62.4144 59.8304 62.4144H60.1452C60.1892 62.4144 60.2287 62.451 60.2287 62.4949C60.2287 62.5389 60.1892 62.5784 60.1452 62.5784ZM60.1452 62.9563H59.8304C59.7864 62.9563 59.7483 62.9196 59.7483 62.8757C59.7483 62.8318 59.7864 62.7937 59.8304 62.7937H60.1452C60.1892 62.7937 60.2287 62.8318 60.2287 62.8757C60.2287 62.9196 60.1892 62.9563 60.1452 62.9563Z" fill="#3D3D3D"/>
<rect opacity="0.1" x="64.6427" y="61.2354" width="0.176429" height="3.17572" fill="#3D3D3D"/>
<path opacity="0.6" d="M66.3492 63.7371C66.3064 63.7371 66.272 63.7219 66.2361 63.6854L65.7385 63.1775C65.713 63.1506 65.7006 63.121 65.7006 63.0844C65.7006 63.01 65.7613 62.948 65.835 62.948C65.8722 62.948 65.9067 62.9638 65.935 62.9928L66.3505 63.4221L66.764 62.9928C66.7923 62.9632 66.8268 62.948 66.8633 62.948C66.937 62.948 66.9977 63.01 66.9977 63.0844C66.9977 63.121 66.986 63.1513 66.9598 63.1768L66.4629 63.6854C66.427 63.7212 66.3933 63.7371 66.3492 63.7371Z" fill="#3D3D3D"/>
<path opacity="0.7" d="M70.2396 62.7659C70.2396 62.7293 70.2528 62.6956 70.2806 62.6692L71.4419 61.5328C71.4668 61.5079 71.499 61.4947 71.5371 61.4947C71.6133 61.4947 71.6719 61.5518 71.6719 61.628C71.6719 61.6646 71.6557 61.6983 71.6323 61.7232L70.5662 62.7659L71.6323 63.8086C71.6557 63.8335 71.6719 63.8657 71.6719 63.9038C71.6719 63.9799 71.6133 64.0371 71.5371 64.0371C71.499 64.0371 71.4668 64.0239 71.4419 63.9975L70.2806 62.8625C70.2528 62.8347 70.2396 62.8025 70.2396 62.7659Z" fill="#3D3D3D"/>
<path opacity="0.7" d="M282.638 64.2597C281.822 64.2597 281.144 63.5816 281.144 62.7659C281.144 61.9487 281.82 61.2721 282.636 61.2721C283.453 61.2721 284.131 61.9487 284.131 62.7659C284.131 63.5816 283.455 64.2597 282.638 64.2597ZM282.638 64.0107C283.329 64.0107 283.882 63.4571 283.882 62.7659C283.882 62.0746 283.327 61.5211 282.636 61.5211C281.945 61.5211 281.394 62.0746 281.394 62.7659C281.394 63.4571 281.946 64.0107 282.638 64.0107ZM282.638 62.0204C282.702 62.0204 282.747 62.0658 282.747 62.1303V62.8625L282.736 63.173L282.885 62.9958L283.058 62.8201C283.077 62.7981 283.103 62.7878 283.136 62.7878C283.196 62.7878 283.242 62.8332 283.242 62.8933C283.242 62.924 283.231 62.9504 283.212 62.9694L282.724 63.4557C282.696 63.4835 282.67 63.4981 282.638 63.4981C282.607 63.4981 282.582 63.4849 282.553 63.4557L282.064 62.9694C282.045 62.9504 282.036 62.924 282.036 62.8933C282.036 62.8332 282.081 62.7878 282.141 62.7878C282.172 62.7878 282.198 62.7996 282.219 62.8201L282.393 62.9958L282.54 63.1715L282.528 62.8625V62.1303C282.528 62.0658 282.575 62.0204 282.638 62.0204Z" fill="#3D3D3D"/>
<path opacity="0.7" d="M290.788 63.1642C290.725 63.1642 290.673 63.1115 290.673 63.05V61.5459L290.682 61.3263L290.582 61.4303L290.361 61.6675C290.34 61.6909 290.308 61.7027 290.28 61.7027C290.219 61.7027 290.175 61.6587 290.175 61.5987C290.175 61.5679 290.187 61.5445 290.208 61.5225L290.703 61.0451C290.734 61.0158 290.759 61.0056 290.788 61.0056C290.819 61.0056 290.844 61.0158 290.873 61.0451L291.368 61.5225C291.39 61.5445 291.404 61.5679 291.404 61.5987C291.404 61.6587 291.357 61.7027 291.297 61.7027C291.267 61.7027 291.238 61.6909 291.218 61.6675L290.995 61.4303L290.897 61.3263L290.906 61.5459V63.05C290.906 63.1115 290.851 63.1642 290.788 63.1642ZM289.949 64.3109C289.643 64.3109 289.489 64.1586 289.489 63.8569V62.3954C289.489 62.0937 289.643 61.9414 289.949 61.9414H290.39V62.1771H289.952C289.806 62.1771 289.725 62.2562 289.725 62.4085V63.8437C289.725 63.9961 289.806 64.0751 289.952 64.0751H291.625C291.77 64.0751 291.853 63.9961 291.853 63.8437V62.4085C291.853 62.2562 291.77 62.1771 291.625 62.1771H291.188V61.9414H291.629C291.935 61.9414 292.089 62.0937 292.089 62.3954V63.8569C292.089 64.1586 291.935 64.3109 291.629 64.3109H289.949Z" fill="#3D3D3D"/>
<path opacity="0.7" d="M297.724 62.7659C297.724 62.6941 297.784 62.6341 297.854 62.6341H298.802V61.688C298.802 61.6177 298.86 61.5577 298.932 61.5577C299.004 61.5577 299.064 61.6177 299.064 61.688V62.6341H300.01C300.08 62.6341 300.14 62.6941 300.14 62.7659C300.14 62.8376 300.08 62.8962 300.01 62.8962H299.064V63.8437C299.064 63.914 299.004 63.9741 298.932 63.9741C298.86 63.9741 298.802 63.914 298.802 63.8437V62.8962H297.854C297.784 62.8962 297.724 62.8376 297.724 62.7659Z" fill="#3D3D3D"/>
<rect x="131.626" y="60.1172" width="84.6858" height="4.94001" rx="1.05857" fill="#3D3D3D" fill-opacity="0.1"/>
<rect x="168.26" y="61.084" width="2.82975" height="2.82975" rx="1.41488" fill="white"/>
<circle cx="169.664" cy="62.4988" r="1.09517" fill="white" stroke="#FAD87D" stroke-width="0.0680229"/>
<path d="M169.272 62.3682H169.269" stroke="#80643C" stroke-width="0.192612" stroke-linecap="round"/>
<path d="M170.04 62.23H170.042" stroke="#80643C" stroke-width="0.192612" stroke-linecap="round"/>
<path fill-rule="evenodd" clip-rule="evenodd" d="M169.642 62.2513C169.652 62.2491 169.663 62.2536 169.668 62.2625L169.752 62.392L169.904 62.4177C169.915 62.4195 169.923 62.4275 169.925 62.4379C169.927 62.4483 169.923 62.4589 169.914 62.4647L169.784 62.5485L169.759 62.7006C169.757 62.7111 169.749 62.7194 169.739 62.7216C169.728 62.7237 169.718 62.7192 169.712 62.7103L169.628 62.5808L169.476 62.5551C169.465 62.5533 169.457 62.5453 169.455 62.5349C169.453 62.5246 169.457 62.5139 169.466 62.5082L169.596 62.4243L169.621 62.2722C169.623 62.2617 169.631 62.2534 169.642 62.2513Z" fill="url(#paint7_linear_426_60708)"/>
<path d="M169.248 62.8201C169.458 62.9678 169.978 63.0823 170.244 62.5882" stroke="#80643C" stroke-width="0.13758" stroke-linecap="round"/>
<path d="M172.863 62.999V61.27H173.372C173.574 61.27 173.741 61.3054 173.871 61.3762C174.002 61.4454 174.1 61.545 174.162 61.6751C174.226 61.8035 174.258 61.9583 174.258 62.1395C174.258 62.3173 174.226 62.4704 174.162 62.5989C174.1 62.7273 174.002 62.8261 173.871 62.8953C173.741 62.9644 173.574 62.999 173.372 62.999H172.863ZM173.07 62.8261H173.367C173.535 62.8261 173.668 62.799 173.767 62.7446C173.866 62.6886 173.936 62.6096 173.979 62.5075C174.022 62.4038 174.044 62.2811 174.044 62.1395C174.044 61.9946 174.022 61.8702 173.979 61.7665C173.936 61.6628 173.866 61.5829 173.767 61.5269C173.668 61.4709 173.535 61.4429 173.367 61.4429H173.07V62.8261ZM174.608 62.999V61.7541H174.815V62.999H174.608ZM174.712 61.4899C174.67 61.4899 174.636 61.4767 174.608 61.4503C174.582 61.4223 174.568 61.3878 174.568 61.3466C174.568 61.3054 174.582 61.2725 174.608 61.2478C174.636 61.2214 174.67 61.2083 174.712 61.2083C174.751 61.2083 174.785 61.2214 174.813 61.2478C174.841 61.2725 174.855 61.3054 174.855 61.3466C174.855 61.3878 174.841 61.4223 174.813 61.4503C174.785 61.4767 174.751 61.4899 174.712 61.4899ZM175.688 63.0287C175.584 63.0287 175.494 63.0114 175.416 62.9768C175.34 62.9422 175.279 62.8945 175.233 62.8335C175.189 62.771 175.162 62.6977 175.152 62.6137H175.364C175.372 62.6565 175.39 62.696 175.416 62.7323C175.442 62.7685 175.478 62.7981 175.522 62.8212C175.568 62.8426 175.624 62.8533 175.69 62.8533C175.748 62.8533 175.796 62.8451 175.834 62.8286C175.871 62.8105 175.899 62.7866 175.918 62.757C175.937 62.7273 175.947 62.6952 175.947 62.6606C175.947 62.6096 175.935 62.5709 175.91 62.5445C175.887 62.5182 175.852 62.4976 175.806 62.4828C175.76 62.4663 175.704 62.4523 175.638 62.4408C175.584 62.4309 175.531 62.4177 175.478 62.4013C175.425 62.3848 175.378 62.3634 175.337 62.3371C175.296 62.3091 175.263 62.2753 175.238 62.2358C175.215 62.1963 175.204 62.1477 175.204 62.0901C175.204 62.0193 175.222 61.9567 175.258 61.9023C175.294 61.8464 175.346 61.8027 175.414 61.7714C175.483 61.7401 175.563 61.7245 175.653 61.7245C175.787 61.7245 175.894 61.7566 175.977 61.8208C176.059 61.8851 176.108 61.9781 176.123 62.0999H175.918C175.909 62.0374 175.882 61.9888 175.836 61.9542C175.792 61.918 175.73 61.8999 175.651 61.8999C175.573 61.8999 175.514 61.9155 175.473 61.9468C175.433 61.9781 175.414 62.0193 175.414 62.0703C175.414 62.1032 175.424 62.1329 175.446 62.1592C175.469 62.1839 175.502 62.2053 175.545 62.2234C175.589 62.2416 175.643 62.2564 175.708 62.2679C175.79 62.2827 175.865 62.3025 175.932 62.3272C176 62.3519 176.054 62.3889 176.095 62.4383C176.138 62.4861 176.16 62.5544 176.16 62.6433C176.16 62.7207 176.14 62.7882 176.1 62.8459C176.062 62.9035 176.008 62.9488 175.937 62.9817C175.866 63.013 175.783 63.0287 175.688 63.0287ZM176.495 62.999V61.2206H176.703V61.9641C176.744 61.89 176.802 61.8315 176.876 61.7887C176.952 61.7459 177.034 61.7245 177.123 61.7245C177.218 61.7245 177.301 61.7443 177.372 61.7838C177.443 61.8217 177.497 61.8801 177.535 61.9592C177.573 62.0382 177.592 62.1378 177.592 62.258V62.999H177.387V62.2803C177.387 62.1551 177.361 62.0612 177.308 61.9987C177.255 61.9345 177.179 61.9023 177.078 61.9023C177.008 61.9023 176.943 61.9196 176.886 61.9542C176.83 61.9888 176.785 62.0382 176.752 62.1024C176.719 62.1666 176.703 62.2457 176.703 62.3395V62.999H176.495ZM178.053 63.5424L178.357 62.8607H178.285L177.796 61.7541H178.021L178.426 62.7051L178.851 61.7541H179.066L178.27 63.5424H178.053Z" fill="#3D3D3D"/>
<g clip-path="url(#clip2_426_60708)">
<path d="M42 67.1743H306V168.174H42V67.1743Z" fill="#FFF9E8"/>
<g clip-path="url(#clip3_426_60708)">
<rect width="219.948" height="171.376" transform="translate(63.9948 67.1743)" fill="#FFF9E8"/>
<rect x="71.3264" y="78.1719" width="106.278" height="4.86753" rx="2.43377" fill="#F1E1B7"/>
<rect x="71.3264" y="86.2153" width="48.5718" height="45.8225" rx="1.22193" fill="#FFEEBF"/>
<path d="M113.788 128.065C113.822 128.065 113.852 128.087 113.865 128.118L114.042 128.575L114.5 128.753C114.532 128.765 114.552 128.796 114.552 128.829C114.552 128.863 114.532 128.894 114.5 128.906L114.042 129.084L113.865 129.541C113.852 129.572 113.822 129.594 113.788 129.594C113.755 129.594 113.724 129.572 113.712 129.541L113.534 129.084L113.077 128.906C113.046 128.894 113.025 128.863 113.025 128.829C113.025 128.796 113.046 128.765 113.077 128.753L113.534 128.575L113.712 128.118C113.724 128.087 113.755 128.065 113.788 128.065ZM115.621 125.47C115.702 125.47 115.775 125.519 115.804 125.595L116.232 126.692L117.329 127.119C117.405 127.149 117.454 127.222 117.454 127.303C117.454 127.383 117.405 127.456 117.329 127.485L116.232 127.912L115.804 129.01C115.775 129.085 115.702 129.136 115.621 129.136C115.54 129.136 115.468 129.085 115.439 129.01L115.011 127.912L113.913 127.485C113.838 127.456 113.788 127.384 113.788 127.303C113.788 127.222 113.838 127.149 113.913 127.119L115.011 126.692L115.439 125.595C115.468 125.519 115.54 125.47 115.621 125.47Z" fill="url(#paint8_linear_426_60708)"/>
<rect x="71.3263" y="134.482" width="11.4068" height="4.72965" rx="2.36482" fill="#F1E1B7"/>
<rect x="71.3264" y="141.655" width="48.5718" height="4.86753" rx="2.43377" fill="#F1E1B7" fill-opacity="0.5"/>
<rect x="123.564" y="86.2153" width="48.5718" height="45.8225" rx="1.22193" fill="#FFEEBF"/>
<path d="M166.026 128.065C166.06 128.065 166.09 128.087 166.102 128.118L166.28 128.575L166.738 128.753C166.769 128.765 166.789 128.796 166.789 128.829C166.789 128.863 166.769 128.894 166.738 128.906L166.28 129.084L166.102 129.541C166.09 129.572 166.06 129.594 166.026 129.594C165.992 129.594 165.962 129.572 165.95 129.541L165.772 129.084L165.314 128.906C165.283 128.894 165.262 128.863 165.262 128.829C165.262 128.796 165.283 128.765 165.314 128.753L165.772 128.575L165.95 128.118C165.962 128.087 165.992 128.065 166.026 128.065ZM167.859 125.47C167.94 125.47 168.012 125.519 168.041 125.595L168.468 126.692L169.567 127.119C169.642 127.149 169.692 127.222 169.692 127.303C169.692 127.383 169.642 127.456 169.567 127.485L168.468 127.912L168.041 129.01C168.012 129.085 167.94 129.136 167.859 129.136C167.778 129.136 167.705 129.085 167.675 129.01L167.248 127.912L166.151 127.485C166.075 127.456 166.026 127.384 166.026 127.303C166.026 127.222 166.075 127.149 166.151 127.119L167.248 126.692L167.675 125.595C167.705 125.519 167.778 125.47 167.859 125.47Z" fill="url(#paint9_linear_426_60708)"/>
<rect x="123.564" y="134.482" width="11.4068" height="4.72965" rx="2.36482" fill="#F1E1B7"/>
<rect x="123.564" y="141.655" width="48.5718" height="4.86753" rx="2.43377" fill="#F1E1B7" fill-opacity="0.5"/>
<rect x="175.802" y="86.2153" width="48.5718" height="45.8225" rx="1.22193" fill="#FFEEBF"/>
<path d="M218.263 128.065C218.297 128.065 218.327 128.087 218.34 128.118L218.517 128.575L218.975 128.753C219.007 128.765 219.027 128.796 219.027 128.829C219.027 128.863 219.007 128.894 218.975 128.906L218.517 129.084L218.34 129.541C218.327 129.572 218.297 129.594 218.263 129.594C218.23 129.594 218.199 129.572 218.187 129.541L218.01 129.084L217.552 128.906C217.52 128.894 217.5 128.863 217.5 128.829C217.5 128.796 217.52 128.765 217.552 128.753L218.01 128.575L218.187 128.118C218.199 128.087 218.23 128.065 218.263 128.065ZM220.096 125.47C220.177 125.47 220.25 125.519 220.279 125.595L220.706 126.692L221.804 127.119C221.88 127.149 221.929 127.222 221.929 127.303C221.929 127.383 221.88 127.456 221.804 127.485L220.706 127.912L220.279 129.01C220.25 129.085 220.177 129.136 220.096 129.136C220.015 129.136 219.942 129.085 219.913 129.01L219.486 127.912L218.388 127.485C218.313 127.456 218.264 127.384 218.263 127.303C218.263 127.222 218.313 127.149 218.388 127.119L219.486 126.692L219.913 125.595C219.942 125.519 220.015 125.47 220.096 125.47Z" fill="url(#paint10_linear_426_60708)"/>
<rect x="175.802" y="134.482" width="11.4068" height="4.72965" rx="2.36482" fill="#F1E1B7"/>
<rect x="175.802" y="141.655" width="48.5718" height="4.86753" rx="2.43377" fill="#F1E1B7" fill-opacity="0.5"/>
<rect x="228.039" y="86.2153" width="48.5718" height="45.8225" rx="1.22193" fill="#FFEEBF"/>
<path d="M270.501 128.065C270.535 128.065 270.565 128.087 270.577 128.118L270.755 128.575L271.213 128.753C271.244 128.765 271.265 128.796 271.265 128.829C271.265 128.863 271.244 128.894 271.213 128.906L270.755 129.084L270.577 129.541C270.565 129.572 270.535 129.594 270.501 129.594C270.467 129.594 270.437 129.572 270.425 129.541L270.247 129.084L269.789 128.906C269.758 128.894 269.738 128.863 269.738 128.829C269.738 128.796 269.758 128.765 269.789 128.753L270.247 128.575L270.425 128.118C270.437 128.087 270.467 128.065 270.501 128.065ZM272.334 125.47C272.415 125.47 272.487 125.519 272.517 125.595L272.944 126.692L274.042 127.119C274.118 127.149 274.167 127.222 274.167 127.303C274.167 127.383 274.117 127.456 274.042 127.485L272.944 127.912L272.517 129.01C272.488 129.085 272.415 129.136 272.334 129.136C272.253 129.136 272.18 129.085 272.151 129.01L271.724 127.912L270.626 127.485C270.551 127.456 270.501 127.384 270.501 127.303C270.501 127.222 270.551 127.149 270.626 127.119L271.724 126.692L272.151 125.595C272.18 125.519 272.253 125.47 272.334 125.47Z" fill="url(#paint11_linear_426_60708)"/>
<rect x="228.039" y="134.482" width="11.4068" height="4.72965" rx="2.36482" fill="#F1E1B7"/>
<rect x="228.039" y="141.655" width="48.5718" height="4.86753" rx="2.43377" fill="#F1E1B7" fill-opacity="0.5"/>
<rect x="71.3264" y="155.808" width="48.5718" height="45.8225" rx="1.22193" fill="#FFEEBF"/>
<rect x="123.564" y="155.808" width="48.5718" height="45.8225" rx="1.22193" fill="#FFEEBF"/>
<rect x="175.802" y="155.808" width="48.5718" height="45.8225" rx="1.22193" fill="#FFEEBF"/>
<rect x="228.039" y="155.808" width="48.5718" height="45.8225" rx="1.22193" fill="#FFEEBF"/>
</g>
</g>
<path d="M305.5 67.6743V167.674H42.5V67.6743H305.5Z" stroke="#FFECB9"/>
<defs>
<linearGradient id="paint0_linear_426_60708" x1="174" y1="0" x2="174" y2="168" gradientUnits="userSpaceOnUse">
<stop stop-color="#F4FAFF"/>
<stop offset="1" stop-color="#FFF6E0"/>
</linearGradient>
<linearGradient id="paint1_linear_426_60708" x1="36.95" y1="21.6206" x2="32.2071" y2="33.2066" gradientUnits="userSpaceOnUse">
<stop offset="0.0438452" stop-color="#ABD0F8"/>
<stop offset="1" stop-color="#FAD87D"/>
</linearGradient>
<linearGradient id="paint2_linear_426_60708" x1="169.834" y1="62.2115" x2="169.739" y2="62.7216" gradientUnits="userSpaceOnUse">
<stop offset="0.0438452" stop-color="#ABD0F8"/>
<stop offset="1" stop-color="#FAD87D"/>
</linearGradient>
<linearGradient id="paint3_linear_426_60708" x1="117.122" y1="125.928" x2="115.621" y2="129.594" gradientUnits="userSpaceOnUse">
<stop offset="0.0438452" stop-color="#ABD0F8"/>
<stop offset="1" stop-color="#FAD87D"/>
</linearGradient>
<linearGradient id="paint4_linear_426_60708" x1="169.36" y1="125.928" x2="167.859" y2="129.594" gradientUnits="userSpaceOnUse">
<stop offset="0.0438452" stop-color="#ABD0F8"/>
<stop offset="1" stop-color="#FAD87D"/>
</linearGradient>
<linearGradient id="paint5_linear_426_60708" x1="221.597" y1="125.928" x2="220.097" y2="129.594" gradientUnits="userSpaceOnUse">
<stop offset="0.0438452" stop-color="#ABD0F8"/>
<stop offset="1" stop-color="#FAD87D"/>
</linearGradient>
<linearGradient id="paint6_linear_426_60708" x1="273.835" y1="125.928" x2="272.334" y2="129.594" gradientUnits="userSpaceOnUse">
<stop offset="0.0438452" stop-color="#ABD0F8"/>
<stop offset="1" stop-color="#FAD87D"/>
</linearGradient>
<linearGradient id="paint7_linear_426_60708" x1="169.834" y1="62.2115" x2="169.739" y2="62.7216" gradientUnits="userSpaceOnUse">
<stop offset="0.0438452" stop-color="#ABD0F8"/>
<stop offset="1" stop-color="#FAD87D"/>
</linearGradient>
<linearGradient id="paint8_linear_426_60708" x1="117.122" y1="125.928" x2="115.621" y2="129.594" gradientUnits="userSpaceOnUse">
<stop offset="0.0438452" stop-color="#ABD0F8"/>
<stop offset="1" stop-color="#FAD87D"/>
</linearGradient>
<linearGradient id="paint9_linear_426_60708" x1="169.36" y1="125.928" x2="167.859" y2="129.594" gradientUnits="userSpaceOnUse">
<stop offset="0.0438452" stop-color="#ABD0F8"/>
<stop offset="1" stop-color="#FAD87D"/>
</linearGradient>
<linearGradient id="paint10_linear_426_60708" x1="221.597" y1="125.928" x2="220.097" y2="129.594" gradientUnits="userSpaceOnUse">
<stop offset="0.0438452" stop-color="#ABD0F8"/>
<stop offset="1" stop-color="#FAD87D"/>
</linearGradient>
<linearGradient id="paint11_linear_426_60708" x1="273.835" y1="125.928" x2="272.334" y2="129.594" gradientUnits="userSpaceOnUse">
<stop offset="0.0438452" stop-color="#ABD0F8"/>
<stop offset="1" stop-color="#FAD87D"/>
</linearGradient>
<clipPath id="clip0_426_60708">
<path d="M42 67.1743H306V168.174H42V67.1743Z" fill="white"/>
</clipPath>
<clipPath id="clip1_426_60708">
<rect width="219.948" height="171.376" fill="white" transform="translate(63.9948 67.1743)"/>
</clipPath>
<clipPath id="clip2_426_60708">
<path d="M42 67.1743H306V168.174H42V67.1743Z" fill="white"/>
</clipPath>
<clipPath id="clip3_426_60708">
<rect width="219.948" height="171.376" fill="white" transform="translate(63.9948 67.1743)"/>
</clipPath>
</defs>
</svg>
