<svg width="348" height="168" viewBox="0 0 348 168" fill="none" xmlns="http://www.w3.org/2000/svg">
<path d="M0 14C0 6.26801 6.26801 0 14 0H334C341.732 0 348 6.26801 348 14V154C348 161.732 341.732 168 334 168H14C6.268 168 0 161.732 0 154V14Z" fill="url(#paint0_linear_426_60611)"/>
<path d="M14 0.5H334C341.456 0.5 347.5 6.54416 347.5 14V154C347.5 161.456 341.456 167.5 334 167.5H14C6.54416 167.5 0.5 161.456 0.5 154V14C0.5 6.54416 6.54416 0.500001 14 0.5Z" stroke="black" stroke-opacity="0.09"/>
<g filter="url(#filter0_d_426_60611)">
<rect x="77" y="59" width="87.7778" height="55.5556" rx="4.58947" fill="#FFFCF3" shape-rendering="crispEdges"/>
<rect x="77.4589" y="59.4589" width="86.8599" height="54.6377" rx="4.13053" stroke="#FFEBB7" stroke-width="0.917894" shape-rendering="crispEdges"/>
<path d="M87.6628 65.4019C87.7494 65.1355 88.1262 65.1355 88.2128 65.4019L88.9276 67.6021C88.9664 67.7212 89.0774 67.8019 89.2026 67.8019H91.516C91.7961 67.8019 91.9125 68.1602 91.686 68.3249L89.8144 69.6847C89.713 69.7583 89.6706 69.8888 89.7093 70.0079L90.4242 72.2081C90.5108 72.4744 90.2059 72.6959 89.9793 72.5313L88.1077 71.1715C88.0064 71.0979 87.8692 71.0979 87.7679 71.1715L85.8963 72.5313C85.6697 72.6959 85.3648 72.4744 85.4514 72.2081L86.1663 70.0079C86.205 69.8888 86.1626 69.7583 86.0612 69.6847L84.1896 68.3249C83.9631 68.1602 84.0795 67.8019 84.3596 67.8019H86.673C86.7983 67.8019 86.9093 67.7212 86.948 67.6021L87.6628 65.4019Z" fill="#FFE59F"/>
<path d="M99.8125 65.4019C99.8991 65.1355 100.276 65.1355 100.362 65.4019L101.077 67.6021C101.116 67.7212 101.227 67.8019 101.352 67.8019H103.666C103.946 67.8019 104.062 68.1602 103.836 68.3249L101.964 69.6847C101.863 69.7583 101.82 69.8888 101.859 70.0079L102.574 72.2081C102.66 72.4744 102.356 72.6959 102.129 72.5313L100.257 71.1715C100.156 71.0979 100.019 71.0979 99.9175 71.1715L98.0459 72.5313C97.8193 72.6959 97.5145 72.4744 97.601 72.2081L98.3159 70.0079C98.3546 69.8888 98.3122 69.7583 98.2109 69.6847L96.3393 68.3249C96.1127 68.1602 96.2292 67.8019 96.5092 67.8019H98.8227C98.9479 67.8019 99.0589 67.7212 99.0976 67.6021L99.8125 65.4019Z" fill="#FFE59F"/>
<path d="M111.962 65.4019C112.048 65.1355 112.425 65.1355 112.512 65.4019L113.227 67.6021C113.265 67.7212 113.376 67.8019 113.502 67.8019H115.815C116.095 67.8019 116.212 68.1602 115.985 68.3249L114.113 69.6847C114.012 69.7583 113.97 69.8888 114.008 70.0079L114.723 72.2081C114.81 72.4744 114.505 72.6959 114.278 72.5313L112.407 71.1715C112.305 71.0979 112.168 71.0979 112.067 71.1715L110.195 72.5313C109.969 72.6959 109.664 72.4744 109.75 72.2081L110.465 70.0079C110.504 69.8888 110.462 69.7583 110.36 69.6847L108.489 68.3249C108.262 68.1602 108.379 67.8019 108.659 67.8019H110.972C111.097 67.8019 111.208 67.7212 111.247 67.6021L111.962 65.4019Z" fill="#FFE59F"/>
<path d="M124.112 65.4019C124.198 65.1355 124.575 65.1355 124.661 65.4019L125.376 67.6021C125.415 67.7212 125.526 67.8019 125.651 67.8019H127.965C128.245 67.8019 128.361 68.1602 128.135 68.3249L126.263 69.6847C126.162 69.7583 126.119 69.8888 126.158 70.0079L126.873 72.2081C126.96 72.4744 126.655 72.6959 126.428 72.5313L124.556 71.1715C124.455 71.0979 124.318 71.0979 124.217 71.1715L122.345 72.5313C122.118 72.6959 121.814 72.4744 121.9 72.2081L122.615 70.0079C122.654 69.8888 122.611 69.7583 122.51 69.6847L120.638 68.3249C120.412 68.1602 120.528 67.8019 120.808 67.8019H123.122C123.247 67.8019 123.358 67.7212 123.397 67.6021L124.112 65.4019Z" fill="#FFE59F"/>
</g>
<g filter="url(#filter1_d_426_60611)">
<rect x="187" y="56" width="51" height="55.5102" rx="4.16327" fill="#FFFCF4" shape-rendering="crispEdges"/>
<rect x="187.356" y="56.3558" width="50.2883" height="54.7985" rx="3.80743" stroke="#FAD87D" stroke-width="0.711669" shape-rendering="crispEdges"/>
<rect x="191.163" y="62.5918" width="42.6735" height="36.7755" rx="4.85714" fill="#F1E1B7"/>
<rect x="191.163" y="102.49" width="38.1633" height="5.20408" rx="2.60204" fill="#F1E1B7"/>
</g>
<g filter="url(#filter2_d_426_60611)">
<rect x="20" y="77.8887" width="127.778" height="73.6453" rx="5.55556" fill="#FFF9E8" shape-rendering="crispEdges"/>
<rect x="20.5556" y="78.4442" width="126.667" height="72.5342" rx="5" stroke="#FAD87D" stroke-width="1.11111" shape-rendering="crispEdges"/>
<path d="M32.9075 90.8725C33.0122 90.5501 33.4684 90.5501 33.5731 90.8725L34.4385 93.5358C34.4854 93.68 34.6197 93.7777 34.7714 93.7777H37.5718C37.9108 93.7777 38.0517 94.2115 37.7775 94.4107L35.5119 96.0568C35.3892 96.1459 35.3379 96.3039 35.3848 96.4481L36.2501 99.1114C36.3549 99.4338 35.9859 99.7019 35.7116 99.5027L33.446 97.8566C33.3234 97.7675 33.1573 97.7675 33.0346 97.8566L30.769 99.5027C30.4948 99.7019 30.1257 99.4338 30.2305 99.1114L31.0959 96.4481C31.1427 96.3039 31.0914 96.1459 30.9687 96.0568L28.7032 94.4107C28.4289 94.2115 28.5699 93.7777 28.9089 93.7777H31.7093C31.8609 93.7777 31.9953 93.68 32.0421 93.5358L32.9075 90.8725Z" fill="#FAB90C"/>
<path d="M47.6145 90.8725C47.7193 90.5501 48.1754 90.5501 48.2802 90.8725L49.1456 93.5358C49.1924 93.68 49.3268 93.7777 49.4784 93.7777H52.2788C52.6178 93.7777 52.7588 94.2115 52.4845 94.4107L50.2189 96.0568C50.0963 96.1459 50.0449 96.3039 50.0918 96.4481L50.9572 99.1114C51.0619 99.4338 50.6929 99.7019 50.4186 99.5027L48.153 97.8566C48.0304 97.7675 47.8643 97.7675 47.7416 97.8566L45.4761 99.5027C45.2018 99.7019 44.8328 99.4338 44.9375 99.1114L45.8029 96.4481C45.8498 96.3039 45.7984 96.1459 45.6758 96.0568L43.4102 94.4107C43.1359 94.2115 43.2769 93.7777 43.6159 93.7777H46.4163C46.5679 93.7777 46.7023 93.68 46.7491 93.5358L47.6145 90.8725Z" fill="#FAB90C"/>
<path d="M62.3215 90.8725C62.4263 90.5501 62.8824 90.5501 62.9872 90.8725L63.8526 93.5358C63.8994 93.68 64.0338 93.7777 64.1854 93.7777H66.9858C67.3248 93.7777 67.4658 94.2115 67.1915 94.4107L64.9259 96.0568C64.8033 96.1459 64.752 96.3039 64.7988 96.4481L65.6642 99.1114C65.769 99.4338 65.3999 99.7019 65.1257 99.5027L62.8601 97.8566C62.7374 97.7675 62.5713 97.7675 62.4487 97.8566L60.1831 99.5027C59.9088 99.7019 59.5398 99.4338 59.6446 99.1114L60.5099 96.4481C60.5568 96.3039 60.5055 96.1459 60.3828 96.0568L58.1172 94.4107C57.843 94.2115 57.9839 93.7777 58.3229 93.7777H61.1233C61.275 93.7777 61.4093 93.68 61.4562 93.5358L62.3215 90.8725Z" fill="#FAB90C"/>
<path d="M77.0286 90.8725C77.1333 90.5501 77.5895 90.5501 77.6942 90.8725L78.5596 93.5358C78.6065 93.68 78.7408 93.7777 78.8924 93.7777H81.6929C82.0319 93.7777 82.1728 94.2115 81.8986 94.4107L79.633 96.0568C79.5103 96.1459 79.459 96.3039 79.5058 96.4481L80.3712 99.1114C80.476 99.4338 80.107 99.7019 79.8327 99.5027L77.5671 97.8566C77.4445 97.7675 77.2784 97.7675 77.1557 97.8566L74.8901 99.5027C74.6159 99.7019 74.2468 99.4338 74.3516 99.1114L75.217 96.4481C75.2638 96.3039 75.2125 96.1459 75.0898 96.0568L72.8243 94.4107C72.55 94.2115 72.6909 93.7777 73.03 93.7777H75.8304C75.982 93.7777 76.1164 93.68 76.1632 93.5358L77.0286 90.8725Z" fill="#FAB90C"/>
<path d="M91.7356 90.8725C91.8404 90.5501 92.2965 90.5501 92.4013 90.8725L93.2666 93.5358C93.3135 93.68 93.4479 93.7777 93.5995 93.7777H96.3999C96.7389 93.7777 96.8799 94.2115 96.6056 94.4107L94.34 96.0568C94.2174 96.1459 94.166 96.3039 94.2129 96.4481L95.0783 99.1114C95.183 99.4338 94.814 99.7019 94.5397 99.5027L92.2741 97.8566C92.1515 97.7675 91.9854 97.7675 91.8627 97.8566L89.5972 99.5027C89.3229 99.7019 88.9539 99.4338 89.0586 99.1114L89.924 96.4481C89.9709 96.3039 89.9195 96.1459 89.7969 96.0568L87.5313 94.4107C87.257 94.2115 87.398 93.7777 87.737 93.7777H90.5374C90.689 93.7777 90.8234 93.68 90.8702 93.5358L91.7356 90.8725Z" fill="#FAB90C"/>
<rect x="27.5535" y="104.369" width="108.894" height="9.44171" rx="4.72085" fill="#F1E1B7"/>
<rect x="27.5535" y="117.587" width="108.894" height="9.44171" rx="4.72085" fill="#F1E1B7"/>
<rect x="27.5535" y="130.806" width="69.2392" height="9.44171" rx="4.72085" fill="#F1E1B7"/>
</g>
<g filter="url(#filter3_d_426_60611)">
<rect x="205" y="95" width="115" height="56" rx="5" fill="#FFEEC0" shape-rendering="crispEdges"/>
<rect x="205.5" y="95.5" width="114" height="55" rx="4.5" stroke="#FAD87D" shape-rendering="crispEdges"/>
<path d="M216.617 106.686C216.711 106.395 217.122 106.395 217.216 106.686L217.995 109.083C218.037 109.212 218.158 109.3 218.294 109.3H220.815C221.12 109.3 221.247 109.691 221 109.87L218.961 111.351C218.85 111.432 218.804 111.574 218.846 111.704L219.625 114.101C219.719 114.391 219.387 114.632 219.14 114.453L217.101 112.971C216.991 112.891 216.842 112.891 216.731 112.971L214.692 114.453C214.445 114.632 214.113 114.391 214.207 114.101L214.986 111.704C215.028 111.574 214.982 111.432 214.872 111.351L212.833 109.87C212.586 109.691 212.713 109.3 213.018 109.3H215.538C215.675 109.3 215.796 109.212 215.838 109.083L216.617 106.686Z" fill="#E9C464"/>
<path d="M229.853 106.686C229.947 106.395 230.358 106.395 230.452 106.686L231.231 109.083C231.273 109.212 231.394 109.3 231.531 109.3H234.051C234.356 109.3 234.483 109.691 234.236 109.87L232.197 111.351C232.087 111.432 232.04 111.574 232.083 111.704L232.861 114.101C232.956 114.391 232.624 114.632 232.377 114.453L230.338 112.971C230.227 112.891 230.078 112.891 229.967 112.971L227.928 114.453C227.682 114.632 227.349 114.391 227.444 114.101L228.223 111.704C228.265 111.574 228.219 111.432 228.108 111.351L226.069 109.87C225.822 109.691 225.949 109.3 226.254 109.3H228.775C228.911 109.3 229.032 109.212 229.074 109.083L229.853 106.686Z" fill="#E9C464"/>
<path d="M243.089 106.686C243.184 106.395 243.594 106.395 243.688 106.686L244.467 109.083C244.509 109.212 244.63 109.3 244.767 109.3H247.287C247.592 109.3 247.719 109.691 247.472 109.87L245.433 111.351C245.323 111.432 245.277 111.574 245.319 111.704L246.098 114.101C246.192 114.391 245.86 114.632 245.613 114.453L243.574 112.971C243.464 112.891 243.314 112.891 243.204 112.971L241.165 114.453C240.918 114.632 240.586 114.391 240.68 114.101L241.459 111.704C241.501 111.574 241.455 111.432 241.345 111.351L239.305 109.87C239.059 109.691 239.185 109.3 239.491 109.3H242.011C242.147 109.3 242.268 109.212 242.311 109.083L243.089 106.686Z" fill="#E9C464"/>
<rect x="211.798" y="118.833" width="98.0049" height="8.49754" rx="4.24877" fill="#F1E1B7"/>
<rect x="211.798" y="130.729" width="98.0049" height="8.49754" rx="4.24877" fill="#F1E1B7"/>
</g>
<g filter="url(#filter4_d_426_60611)">
<rect x="261" y="33" width="71.6625" height="78" rx="5.85" fill="#FFFCF4" shape-rendering="crispEdges"/>
<rect x="261.5" y="33.5" width="70.6625" height="77" rx="5.35" stroke="#FAD87D" shape-rendering="crispEdges"/>
<rect x="266.85" y="42.2627" width="59.9625" height="51.675" rx="6.825" fill="#F1E1B7"/>
<rect x="266.85" y="98.3252" width="53.625" height="7.3125" rx="3.65625" fill="#F1E1B7"/>
<rect x="280" y="51" width="34.3252" height="34.3252" rx="17.1626" fill="white"/>
<circle cx="297.035" cy="68.1624" r="13.2845" fill="white" stroke="#FAD87D" stroke-width="0.825125"/>
<path d="M292.264 66.5781H292.24" stroke="#80643C" stroke-width="2.33641" stroke-linecap="round"/>
<path d="M301.586 64.9092H301.609" stroke="#80643C" stroke-width="2.33641" stroke-linecap="round"/>
<path fill-rule="evenodd" clip-rule="evenodd" d="M296.756 65.1593C296.882 65.1332 297.011 65.1873 297.081 65.2953L298.098 66.8665L299.944 67.1782C300.071 67.1996 300.171 67.2968 300.197 67.4228C300.223 67.5488 300.169 67.6779 300.061 67.7478L298.49 68.7648L298.179 70.6102C298.157 70.7371 298.06 70.8379 297.934 70.8639C297.808 70.8899 297.679 70.8359 297.609 70.7278L296.592 69.1567L294.746 68.845C294.62 68.8235 294.519 68.7264 294.493 68.6004C294.467 68.4743 294.521 68.3452 294.629 68.2753L296.2 67.2583L296.512 65.4129C296.533 65.286 296.63 65.1853 296.756 65.1593Z" fill="url(#paint1_linear_426_60611)"/>
<path d="M291.979 72.0616C294.531 73.8526 300.835 75.2419 304.07 69.2481" stroke="#80643C" stroke-width="1.66886" stroke-linecap="round"/>
</g>
<path d="M26.4141 28.3794C26.5206 28.3795 26.6166 28.4451 26.6553 28.5444L27.2168 29.9897L28.6631 30.5522C28.7623 30.591 28.8271 30.6869 28.8271 30.7935C28.8271 30.9 28.7623 30.996 28.6631 31.0347L27.2168 31.5962L26.6553 33.0425C26.6166 33.1417 26.5206 33.2064 26.4141 33.2065C26.3075 33.2065 26.2116 33.1417 26.1729 33.0425L25.6104 31.5962L24.165 31.0347C24.0657 30.996 24.0001 30.9 24 30.7935C24 30.6868 24.0656 30.5909 24.165 30.5522L25.6104 29.9897L26.1729 28.5444C26.2115 28.445 26.3074 28.3794 26.4141 28.3794ZM32.207 20.1724C32.4628 20.1724 32.6923 20.3295 32.7852 20.5679L34.1348 24.0376L37.6045 25.3872C37.8428 25.48 37.9999 25.7095 38 25.9653C38 26.2213 37.843 26.4516 37.6045 26.5444L34.1348 27.8931L32.7852 31.3628C32.6924 31.6013 32.4629 31.7582 32.207 31.7583C31.9511 31.7583 31.7207 31.6014 31.6279 31.3628L30.2793 27.8931L26.8096 26.5444C26.571 26.4517 26.4141 26.2213 26.4141 25.9653C26.4141 25.7094 26.5711 25.48 26.8096 25.3872L30.2793 24.0376L31.6279 20.5679C31.7207 20.3293 31.9511 20.1724 32.207 20.1724Z" fill="url(#paint2_linear_426_60611)"/>
<path d="M49.8 28.12C49.1133 28.12 48.52 27.97 48.02 27.67C47.5267 27.3633 47.1433 26.94 46.87 26.4C46.6033 25.8533 46.47 25.22 46.47 24.5C46.47 23.7867 46.6033 23.1567 46.87 22.61C47.1433 22.0633 47.5267 21.64 48.02 21.34C48.52 21.0333 49.1133 20.88 49.8 20.88C50.62 20.88 51.2833 21.0767 51.79 21.47C52.3033 21.8633 52.63 22.4167 52.77 23.13H51.67C51.57 22.7167 51.3633 22.3867 51.05 22.14C50.7433 21.8933 50.3267 21.77 49.8 21.77C49.3267 21.77 48.9167 21.88 48.57 22.1C48.2233 22.32 47.9567 22.6333 47.77 23.04C47.5833 23.4467 47.49 23.9333 47.49 24.5C47.49 25.0667 47.5833 25.5567 47.77 25.97C47.9567 26.3767 48.2233 26.69 48.57 26.91C48.9167 27.1233 49.3267 27.23 49.8 27.23C50.3267 27.23 50.7433 27.1133 51.05 26.88C51.3633 26.64 51.57 26.3167 51.67 25.91H52.77C52.63 26.6033 52.3033 27.1467 51.79 27.54C51.2833 27.9267 50.62 28.12 49.8 28.12ZM56.2163 28.12C55.743 28.12 55.3163 28.01 54.9363 27.79C54.563 27.57 54.2663 27.2633 54.0463 26.87C53.833 26.47 53.7263 26.01 53.7263 25.49C53.7263 24.9567 53.8363 24.4933 54.0563 24.1C54.2763 23.7 54.5763 23.39 54.9563 23.17C55.3363 22.95 55.763 22.84 56.2363 22.84C56.7163 22.84 57.143 22.95 57.5163 23.17C57.8897 23.39 58.183 23.6967 58.3963 24.09C58.6163 24.4833 58.7263 24.9467 58.7263 25.48C58.7263 26.0133 58.6163 26.4767 58.3963 26.87C58.183 27.2633 57.8863 27.57 57.5063 27.79C57.1263 28.01 56.6963 28.12 56.2163 28.12ZM56.2163 27.26C56.4897 27.26 56.7363 27.1933 56.9563 27.06C57.183 26.9267 57.363 26.73 57.4963 26.47C57.6363 26.2033 57.7063 25.8733 57.7063 25.48C57.7063 25.0867 57.6397 24.76 57.5063 24.5C57.373 24.2333 57.193 24.0333 56.9663 23.9C56.7463 23.7667 56.503 23.7 56.2363 23.7C55.9697 23.7 55.723 23.7667 55.4963 23.9C55.2697 24.0333 55.0863 24.2333 54.9463 24.5C54.813 24.76 54.7463 25.0867 54.7463 25.48C54.7463 25.8733 54.813 26.2033 54.9463 26.47C55.0863 26.73 55.2663 26.9267 55.4863 27.06C55.713 27.1933 55.9563 27.26 56.2163 27.26ZM59.9027 28V20.8H60.9027V28H59.9027ZM62.2757 28V20.8H63.2757V28H62.2757ZM66.9288 28.12C66.4488 28.12 66.0221 28.01 65.6488 27.79C65.2754 27.57 64.9821 27.2633 64.7688 26.87C64.5621 26.4767 64.4588 26.02 64.4588 25.5C64.4588 24.9667 64.5621 24.5033 64.7688 24.11C64.9821 23.71 65.2754 23.4 65.6488 23.18C66.0221 22.9533 66.4554 22.84 66.9488 22.84C67.4421 22.84 67.8654 22.95 68.2188 23.17C68.5721 23.39 68.8454 23.6833 69.0388 24.05C69.2321 24.41 69.3288 24.81 69.3288 25.25C69.3288 25.3167 69.3254 25.39 69.3188 25.47C69.3188 25.5433 69.3154 25.6267 69.3088 25.72H65.1888V25.01H68.3288C68.3088 24.59 68.1688 24.2633 67.9088 24.03C67.6488 23.79 67.3254 23.67 66.9388 23.67C66.6654 23.67 66.4154 23.7333 66.1888 23.86C65.9621 23.98 65.7788 24.16 65.6388 24.4C65.5054 24.6333 65.4387 24.93 65.4387 25.29V25.57C65.4387 25.9433 65.5054 26.26 65.6388 26.52C65.7788 26.7733 65.9621 26.9667 66.1888 27.1C66.4154 27.2267 66.6621 27.29 66.9288 27.29C67.2488 27.29 67.5121 27.22 67.7188 27.08C67.9254 26.94 68.0788 26.75 68.1788 26.51H69.1788C69.0921 26.8167 68.9454 27.0933 68.7388 27.34C68.5321 27.58 68.2754 27.77 67.9688 27.91C67.6688 28.05 67.3221 28.12 66.9288 28.12ZM72.7698 28.12C72.2831 28.12 71.8498 28.01 71.4698 27.79C71.0898 27.5633 70.7898 27.2533 70.5698 26.86C70.3564 26.4667 70.2498 26.01 70.2498 25.49C70.2498 24.9633 70.3564 24.5033 70.5698 24.11C70.7898 23.71 71.0898 23.4 71.4698 23.18C71.8498 22.9533 72.2831 22.84 72.7698 22.84C73.3831 22.84 73.8964 23 74.3098 23.32C74.7231 23.64 74.9864 24.0733 75.0998 24.62H74.0598C73.9931 24.3267 73.8398 24.1 73.5998 23.94C73.3664 23.78 73.0864 23.7 72.7598 23.7C72.4931 23.7 72.2464 23.77 72.0198 23.91C71.7931 24.0433 71.6098 24.2433 71.4698 24.51C71.3364 24.77 71.2698 25.0933 71.2698 25.48C71.2698 25.7667 71.3098 26.0233 71.3898 26.25C71.4698 26.47 71.5764 26.6567 71.7098 26.81C71.8498 26.9633 72.0098 27.08 72.1898 27.16C72.3698 27.2333 72.5598 27.27 72.7598 27.27C72.9798 27.27 73.1764 27.2367 73.3498 27.17C73.5298 27.0967 73.6798 26.99 73.7998 26.85C73.9264 26.71 74.0131 26.5433 74.0598 26.35H75.0998C74.9864 26.8833 74.7231 27.3133 74.3098 27.64C73.8964 27.96 73.3831 28.12 72.7698 28.12ZM78.2424 28C77.9224 28 77.6458 27.95 77.4124 27.85C77.1791 27.75 76.9991 27.5833 76.8724 27.35C76.7458 27.1167 76.6824 26.8 76.6824 26.4V23.81H75.8124V22.96H76.6824L76.8024 21.7H77.6824V22.96H79.1124V23.81H77.6824V26.41C77.6824 26.6967 77.7424 26.8933 77.8624 27C77.9824 27.1 78.1891 27.15 78.4824 27.15H79.0624V28H78.2424ZM82.7738 28V22.96H83.6738L83.7638 23.91C83.8771 23.6833 84.0238 23.4933 84.2038 23.34C84.3838 23.18 84.5938 23.0567 84.8338 22.97C85.0804 22.8833 85.3604 22.84 85.6738 22.84V23.9H85.3138C85.1071 23.9 84.9104 23.9267 84.7238 23.98C84.5371 24.0267 84.3704 24.11 84.2238 24.23C84.0838 24.35 83.9738 24.5133 83.8938 24.72C83.8138 24.9267 83.7738 25.1833 83.7738 25.49V28H82.7738ZM88.7256 28.12C88.2456 28.12 87.819 28.01 87.4456 27.79C87.0723 27.57 86.779 27.2633 86.5656 26.87C86.359 26.4767 86.2556 26.02 86.2556 25.5C86.2556 24.9667 86.359 24.5033 86.5656 24.11C86.779 23.71 87.0723 23.4 87.4456 23.18C87.819 22.9533 88.2523 22.84 88.7456 22.84C89.239 22.84 89.6623 22.95 90.0156 23.17C90.369 23.39 90.6423 23.6833 90.8356 24.05C91.029 24.41 91.1256 24.81 91.1256 25.25C91.1256 25.3167 91.1223 25.39 91.1156 25.47C91.1156 25.5433 91.1123 25.6267 91.1056 25.72H86.9856V25.01H90.1256C90.1056 24.59 89.9656 24.2633 89.7056 24.03C89.4456 23.79 89.1223 23.67 88.7356 23.67C88.4623 23.67 88.2123 23.7333 87.9856 23.86C87.759 23.98 87.5756 24.16 87.4356 24.4C87.3023 24.6333 87.2356 24.93 87.2356 25.29V25.57C87.2356 25.9433 87.3023 26.26 87.4356 26.52C87.5756 26.7733 87.759 26.9667 87.9856 27.1C88.2123 27.2267 88.459 27.29 88.7256 27.29C89.0456 27.29 89.309 27.22 89.5156 27.08C89.7223 26.94 89.8756 26.75 89.9756 26.51H90.9756C90.889 26.8167 90.7423 27.0933 90.5356 27.34C90.329 27.58 90.0723 27.77 89.7656 27.91C89.4656 28.05 89.119 28.12 88.7256 28.12ZM93.9066 28.12C93.4933 28.12 93.15 28.05 92.8766 27.91C92.6033 27.77 92.4 27.5833 92.2666 27.35C92.1333 27.11 92.0666 26.8533 92.0666 26.58C92.0666 26.2467 92.1533 25.9633 92.3266 25.73C92.5 25.49 92.7466 25.3067 93.0666 25.18C93.3866 25.0533 93.77 24.99 94.2166 24.99H95.5266C95.5266 24.6967 95.4833 24.4533 95.3966 24.26C95.31 24.0667 95.18 23.9233 95.0066 23.83C94.84 23.73 94.6266 23.68 94.3666 23.68C94.0666 23.68 93.81 23.7533 93.5966 23.9C93.3833 24.04 93.25 24.25 93.1966 24.53H92.1966C92.2366 24.1767 92.3566 23.8767 92.5566 23.63C92.7633 23.3767 93.0266 23.1833 93.3466 23.05C93.6666 22.91 94.0066 22.84 94.3666 22.84C94.84 22.84 95.2366 22.9233 95.5566 23.09C95.8766 23.2567 96.1166 23.4933 96.2766 23.8C96.4433 24.1 96.5266 24.46 96.5266 24.88V28H95.6566L95.5766 27.15C95.5033 27.2833 95.4166 27.41 95.3166 27.53C95.2166 27.65 95.0966 27.7533 94.9566 27.84C94.8233 27.9267 94.6666 27.9933 94.4866 28.04C94.3133 28.0933 94.12 28.12 93.9066 28.12ZM94.0966 27.31C94.31 27.31 94.5033 27.2667 94.6766 27.18C94.85 27.0933 94.9966 26.9767 95.1166 26.83C95.2433 26.6767 95.3366 26.5067 95.3966 26.32C95.4633 26.1267 95.5 25.93 95.5066 25.73V25.7H94.3166C94.03 25.7 93.7966 25.7367 93.6166 25.81C93.4433 25.8767 93.3166 25.97 93.2366 26.09C93.1566 26.21 93.1166 26.35 93.1166 26.51C93.1166 26.6767 93.1533 26.82 93.2266 26.94C93.3066 27.0533 93.42 27.1433 93.5666 27.21C93.7133 27.2767 93.89 27.31 94.0966 27.31ZM97.803 28V20.8H98.803V28H97.803ZM105.065 28.12C104.578 28.12 104.145 28.01 103.765 27.79C103.385 27.5633 103.085 27.2533 102.865 26.86C102.651 26.4667 102.545 26.01 102.545 25.49C102.545 24.9633 102.651 24.5033 102.865 24.11C103.085 23.71 103.385 23.4 103.765 23.18C104.145 22.9533 104.578 22.84 105.065 22.84C105.678 22.84 106.191 23 106.605 23.32C107.018 23.64 107.281 24.0733 107.395 24.62H106.355C106.288 24.3267 106.135 24.1 105.895 23.94C105.661 23.78 105.381 23.7 105.055 23.7C104.788 23.7 104.541 23.77 104.315 23.91C104.088 24.0433 103.905 24.2433 103.765 24.51C103.631 24.77 103.565 25.0933 103.565 25.48C103.565 25.7667 103.605 26.0233 103.685 26.25C103.765 26.47 103.871 26.6567 104.005 26.81C104.145 26.9633 104.305 27.08 104.485 27.16C104.665 27.2333 104.855 27.27 105.055 27.27C105.275 27.27 105.471 27.2367 105.645 27.17C105.825 27.0967 105.975 26.99 106.095 26.85C106.221 26.71 106.308 26.5433 106.355 26.35H107.395C107.281 26.8833 107.018 27.3133 106.605 27.64C106.191 27.96 105.678 28.12 105.065 28.12ZM110.415 28.12C110.021 28.12 109.678 28.04 109.385 27.88C109.098 27.72 108.875 27.48 108.715 27.16C108.561 26.84 108.485 26.4367 108.485 25.95V22.96H109.485V25.84C109.485 26.3133 109.588 26.67 109.795 26.91C110.001 27.15 110.298 27.27 110.685 27.27C110.945 27.27 111.178 27.2067 111.385 27.08C111.598 26.9533 111.765 26.77 111.885 26.53C112.005 26.29 112.065 25.9967 112.065 25.65V22.96H113.065V28H112.175L112.105 27.14C111.951 27.4467 111.728 27.6867 111.435 27.86C111.141 28.0333 110.801 28.12 110.415 28.12ZM116.384 28.12C115.957 28.12 115.584 28.05 115.264 27.91C114.944 27.77 114.691 27.5733 114.504 27.32C114.317 27.0667 114.204 26.77 114.164 26.43H115.184C115.217 26.59 115.281 26.7367 115.374 26.87C115.474 27.0033 115.607 27.11 115.774 27.19C115.947 27.27 116.151 27.31 116.384 27.31C116.604 27.31 116.784 27.28 116.924 27.22C117.071 27.1533 117.177 27.0667 117.244 26.96C117.311 26.8467 117.344 26.7267 117.344 26.6C117.344 26.4133 117.297 26.2733 117.204 26.18C117.117 26.08 116.984 26.0033 116.804 25.95C116.631 25.89 116.421 25.8367 116.174 25.79C115.941 25.75 115.714 25.6967 115.494 25.63C115.281 25.5567 115.087 25.4667 114.914 25.36C114.747 25.2533 114.614 25.12 114.514 24.96C114.414 24.7933 114.364 24.59 114.364 24.35C114.364 24.0633 114.441 23.8067 114.594 23.58C114.747 23.3467 114.964 23.1667 115.244 23.04C115.531 22.9067 115.867 22.84 116.254 22.84C116.814 22.84 117.264 22.9733 117.604 23.24C117.944 23.5067 118.144 23.8833 118.204 24.37H117.234C117.207 24.1433 117.107 23.97 116.934 23.85C116.761 23.7233 116.531 23.66 116.244 23.66C115.957 23.66 115.737 23.7167 115.584 23.83C115.431 23.9433 115.354 24.0933 115.354 24.28C115.354 24.4 115.397 24.5067 115.484 24.6C115.571 24.6933 115.697 24.7733 115.864 24.84C116.037 24.9 116.247 24.9567 116.494 25.01C116.847 25.0767 117.164 25.16 117.444 25.26C117.724 25.36 117.947 25.5067 118.114 25.7C118.281 25.8933 118.364 26.17 118.364 26.53C118.371 26.8433 118.291 27.12 118.124 27.36C117.964 27.6 117.734 27.7867 117.434 27.92C117.141 28.0533 116.791 28.12 116.384 28.12ZM121.416 28C121.096 28 120.82 27.95 120.586 27.85C120.353 27.75 120.173 27.5833 120.046 27.35C119.92 27.1167 119.856 26.8 119.856 26.4V23.81H118.986V22.96H119.856L119.976 21.7H120.856V22.96H122.286V23.81H120.856V26.41C120.856 26.6967 120.916 26.8933 121.036 27C121.156 27.1 121.363 27.15 121.656 27.15H122.236V28H121.416ZM125.552 28.12C125.079 28.12 124.652 28.01 124.272 27.79C123.899 27.57 123.602 27.2633 123.382 26.87C123.169 26.47 123.062 26.01 123.062 25.49C123.062 24.9567 123.172 24.4933 123.392 24.1C123.612 23.7 123.912 23.39 124.292 23.17C124.672 22.95 125.099 22.84 125.572 22.84C126.052 22.84 126.479 22.95 126.852 23.17C127.226 23.39 127.519 23.6967 127.732 24.09C127.952 24.4833 128.062 24.9467 128.062 25.48C128.062 26.0133 127.952 26.4767 127.732 26.87C127.519 27.2633 127.222 27.57 126.842 27.79C126.462 28.01 126.032 28.12 125.552 28.12ZM125.552 27.26C125.826 27.26 126.072 27.1933 126.292 27.06C126.519 26.9267 126.699 26.73 126.832 26.47C126.972 26.2033 127.042 25.8733 127.042 25.48C127.042 25.0867 126.976 24.76 126.842 24.5C126.709 24.2333 126.529 24.0333 126.302 23.9C126.082 23.7667 125.839 23.7 125.572 23.7C125.306 23.7 125.059 23.7667 124.832 23.9C124.606 24.0333 124.422 24.2333 124.282 24.5C124.149 24.76 124.082 25.0867 124.082 25.48C124.082 25.8733 124.149 26.2033 124.282 26.47C124.422 26.73 124.602 26.9267 124.822 27.06C125.049 27.1933 125.292 27.26 125.552 27.26ZM129.239 28V22.96H130.139L130.209 23.67C130.369 23.41 130.582 23.2067 130.849 23.06C131.115 22.9133 131.415 22.84 131.749 22.84C132.002 22.84 132.232 22.8767 132.439 22.95C132.645 23.0167 132.829 23.12 132.989 23.26C133.149 23.4 133.279 23.5733 133.379 23.78C133.559 23.4867 133.799 23.2567 134.099 23.09C134.405 22.9233 134.729 22.84 135.069 22.84C135.475 22.84 135.825 22.9233 136.119 23.09C136.412 23.25 136.635 23.4933 136.789 23.82C136.942 24.14 137.019 24.54 137.019 25.02V28H136.029V25.12C136.029 24.6533 135.932 24.3 135.739 24.06C135.552 23.82 135.275 23.7 134.909 23.7C134.662 23.7 134.442 23.7633 134.249 23.89C134.055 24.0167 133.902 24.2 133.789 24.44C133.682 24.68 133.629 24.9733 133.629 25.32V28H132.629V25.12C132.629 24.6533 132.532 24.3 132.339 24.06C132.152 23.82 131.875 23.7 131.509 23.7C131.275 23.7 131.062 23.7633 130.869 23.89C130.675 24.0167 130.522 24.2 130.409 24.44C130.295 24.68 130.239 24.9733 130.239 25.32V28H129.239ZM140.591 28.12C140.111 28.12 139.684 28.01 139.311 27.79C138.938 27.57 138.644 27.2633 138.431 26.87C138.224 26.4767 138.121 26.02 138.121 25.5C138.121 24.9667 138.224 24.5033 138.431 24.11C138.644 23.71 138.938 23.4 139.311 23.18C139.684 22.9533 140.118 22.84 140.611 22.84C141.104 22.84 141.528 22.95 141.881 23.17C142.234 23.39 142.508 23.6833 142.701 24.05C142.894 24.41 142.991 24.81 142.991 25.25C142.991 25.3167 142.988 25.39 142.981 25.47C142.981 25.5433 142.978 25.6267 142.971 25.72H138.851V25.01H141.991C141.971 24.59 141.831 24.2633 141.571 24.03C141.311 23.79 140.988 23.67 140.601 23.67C140.328 23.67 140.078 23.7333 139.851 23.86C139.624 23.98 139.441 24.16 139.301 24.4C139.168 24.6333 139.101 24.93 139.101 25.29V25.57C139.101 25.9433 139.168 26.26 139.301 26.52C139.441 26.7733 139.624 26.9667 139.851 27.1C140.078 27.2267 140.324 27.29 140.591 27.29C140.911 27.29 141.174 27.22 141.381 27.08C141.588 26.94 141.741 26.75 141.841 26.51H142.841C142.754 26.8167 142.608 27.0933 142.401 27.34C142.194 27.58 141.938 27.77 141.631 27.91C141.331 28.05 140.984 28.12 140.591 28.12ZM144.102 28V22.96H145.002L145.092 23.91C145.205 23.6833 145.352 23.4933 145.532 23.34C145.712 23.18 145.922 23.0567 146.162 22.97C146.409 22.8833 146.689 22.84 147.002 22.84V23.9H146.642C146.435 23.9 146.239 23.9267 146.052 23.98C145.865 24.0267 145.699 24.11 145.552 24.23C145.412 24.35 145.302 24.5133 145.222 24.72C145.142 24.9267 145.102 25.1833 145.102 25.49V28H144.102ZM150.479 28V22.96H151.379L151.469 23.91C151.582 23.6833 151.729 23.4933 151.909 23.34C152.089 23.18 152.299 23.0567 152.539 22.97C152.785 22.8833 153.065 22.84 153.379 22.84V23.9H153.019C152.812 23.9 152.615 23.9267 152.429 23.98C152.242 24.0267 152.075 24.11 151.929 24.23C151.789 24.35 151.679 24.5133 151.599 24.72C151.519 24.9267 151.479 25.1833 151.479 25.49V28H150.479ZM156.431 28.12C155.951 28.12 155.524 28.01 155.151 27.79C154.777 27.57 154.484 27.2633 154.271 26.87C154.064 26.4767 153.961 26.02 153.961 25.5C153.961 24.9667 154.064 24.5033 154.271 24.11C154.484 23.71 154.777 23.4 155.151 23.18C155.524 22.9533 155.957 22.84 156.451 22.84C156.944 22.84 157.367 22.95 157.721 23.17C158.074 23.39 158.347 23.6833 158.541 24.05C158.734 24.41 158.831 24.81 158.831 25.25C158.831 25.3167 158.827 25.39 158.821 25.47C158.821 25.5433 158.817 25.6267 158.811 25.72H154.691V25.01H157.831C157.811 24.59 157.671 24.2633 157.411 24.03C157.151 23.79 156.827 23.67 156.441 23.67C156.167 23.67 155.917 23.7333 155.691 23.86C155.464 23.98 155.281 24.16 155.141 24.4C155.007 24.6333 154.941 24.93 154.941 25.29V25.57C154.941 25.9433 155.007 26.26 155.141 26.52C155.281 26.7733 155.464 26.9667 155.691 27.1C155.917 27.2267 156.164 27.29 156.431 27.29C156.751 27.29 157.014 27.22 157.221 27.08C157.427 26.94 157.581 26.75 157.681 26.51H158.681C158.594 26.8167 158.447 27.0933 158.241 27.34C158.034 27.58 157.777 27.77 157.471 27.91C157.171 28.05 156.824 28.12 156.431 28.12ZM161.176 28L159.286 22.96H160.336L161.766 27.04L163.206 22.96H164.236L162.356 28H161.176ZM165.207 28V22.96H166.207V28H165.207ZM165.717 22.01C165.524 22.01 165.364 21.95 165.237 21.83C165.117 21.71 165.057 21.5567 165.057 21.37C165.057 21.19 165.117 21.0433 165.237 20.93C165.364 20.81 165.524 20.75 165.717 20.75C165.904 20.75 166.06 20.81 166.187 20.93C166.314 21.0433 166.377 21.19 166.377 21.37C166.377 21.5567 166.314 21.71 166.187 21.83C166.06 21.95 165.904 22.01 165.717 22.01ZM169.917 28.12C169.437 28.12 169.01 28.01 168.637 27.79C168.264 27.57 167.97 27.2633 167.757 26.87C167.55 26.4767 167.447 26.02 167.447 25.5C167.447 24.9667 167.55 24.5033 167.757 24.11C167.97 23.71 168.264 23.4 168.637 23.18C169.01 22.9533 169.444 22.84 169.937 22.84C170.43 22.84 170.854 22.95 171.207 23.17C171.56 23.39 171.834 23.6833 172.027 24.05C172.22 24.41 172.317 24.81 172.317 25.25C172.317 25.3167 172.314 25.39 172.307 25.47C172.307 25.5433 172.304 25.6267 172.297 25.72H168.177V25.01H171.317C171.297 24.59 171.157 24.2633 170.897 24.03C170.637 23.79 170.314 23.67 169.927 23.67C169.654 23.67 169.404 23.7333 169.177 23.86C168.95 23.98 168.767 24.16 168.627 24.4C168.494 24.6333 168.427 24.93 168.427 25.29V25.57C168.427 25.9433 168.494 26.26 168.627 26.52C168.767 26.7733 168.95 26.9667 169.177 27.1C169.404 27.2267 169.65 27.29 169.917 27.29C170.237 27.29 170.5 27.22 170.707 27.08C170.914 26.94 171.067 26.75 171.167 26.51H172.167C172.08 26.8167 171.934 27.0933 171.727 27.34C171.52 27.58 171.264 27.77 170.957 27.91C170.657 28.05 170.31 28.12 169.917 28.12ZM174.253 28L172.773 22.96H173.763L174.863 27.16L174.673 27.15L175.893 22.96H177.013L178.233 27.15L178.043 27.16L179.133 22.96H180.143L178.663 28H177.633L176.353 23.63H176.553L175.273 28H174.253ZM182.995 28.12C182.569 28.12 182.195 28.05 181.875 27.91C181.555 27.77 181.302 27.5733 181.115 27.32C180.929 27.0667 180.815 26.77 180.775 26.43H181.795C181.829 26.59 181.892 26.7367 181.985 26.87C182.085 27.0033 182.219 27.11 182.385 27.19C182.559 27.27 182.762 27.31 182.995 27.31C183.215 27.31 183.395 27.28 183.535 27.22C183.682 27.1533 183.789 27.0667 183.855 26.96C183.922 26.8467 183.955 26.7267 183.955 26.6C183.955 26.4133 183.909 26.2733 183.815 26.18C183.729 26.08 183.595 26.0033 183.415 25.95C183.242 25.89 183.032 25.8367 182.785 25.79C182.552 25.75 182.325 25.6967 182.105 25.63C181.892 25.5567 181.699 25.4667 181.525 25.36C181.359 25.2533 181.225 25.12 181.125 24.96C181.025 24.7933 180.975 24.59 180.975 24.35C180.975 24.0633 181.052 23.8067 181.205 23.58C181.359 23.3467 181.575 23.1667 181.855 23.04C182.142 22.9067 182.479 22.84 182.865 22.84C183.425 22.84 183.875 22.9733 184.215 23.24C184.555 23.5067 184.755 23.8833 184.815 24.37H183.845C183.819 24.1433 183.719 23.97 183.545 23.85C183.372 23.7233 183.142 23.66 182.855 23.66C182.569 23.66 182.349 23.7167 182.195 23.83C182.042 23.9433 181.965 24.0933 181.965 24.28C181.965 24.4 182.009 24.5067 182.095 24.6C182.182 24.6933 182.309 24.7733 182.475 24.84C182.649 24.9 182.859 24.9567 183.105 25.01C183.459 25.0767 183.775 25.16 184.055 25.26C184.335 25.36 184.559 25.5067 184.725 25.7C184.892 25.8933 184.975 26.17 184.975 26.53C184.982 26.8433 184.902 27.12 184.735 27.36C184.575 27.6 184.345 27.7867 184.045 27.92C183.752 28.0533 183.402 28.12 182.995 28.12Z" fill="#565656"/>
<defs>
<filter id="filter0_d_426_60611" x="67.8211" y="53.4926" width="106.136" height="73.9136" filterUnits="userSpaceOnUse" color-interpolation-filters="sRGB">
<feFlood flood-opacity="0" result="BackgroundImageFix"/>
<feColorMatrix in="SourceAlpha" type="matrix" values="0 0 0 0 0 0 0 0 0 0 0 0 0 0 0 0 0 0 127 0" result="hardAlpha"/>
<feOffset dy="3.67158"/>
<feGaussianBlur stdDeviation="4.58947"/>
<feComposite in2="hardAlpha" operator="out"/>
<feColorMatrix type="matrix" values="0 0 0 0 0 0 0 0 0 0 0 0 0 0 0 0 0 0 0.2 0"/>
<feBlend mode="normal" in2="BackgroundImageFix" result="effect1_dropShadow_426_60611"/>
<feBlend mode="normal" in="SourceGraphic" in2="effect1_dropShadow_426_60611" result="shape"/>
</filter>
<filter id="filter1_d_426_60611" x="182.872" y="54.719" width="59.2554" height="63.7656" filterUnits="userSpaceOnUse" color-interpolation-filters="sRGB">
<feFlood flood-opacity="0" result="BackgroundImageFix"/>
<feColorMatrix in="SourceAlpha" type="matrix" values="0 0 0 0 0 0 0 0 0 0 0 0 0 0 0 0 0 0 127 0" result="hardAlpha"/>
<feOffset dy="2.84668"/>
<feGaussianBlur stdDeviation="2.06384"/>
<feComposite in2="hardAlpha" operator="out"/>
<feColorMatrix type="matrix" values="0 0 0 0 0 0 0 0 0 0 0 0 0 0 0 0 0 0 0.25 0"/>
<feBlend mode="normal" in2="BackgroundImageFix" result="effect1_dropShadow_426_60611"/>
<feBlend mode="normal" in="SourceGraphic" in2="effect1_dropShadow_426_60611" result="shape"/>
</filter>
<filter id="filter2_d_426_60611" x="8.88889" y="71.222" width="150" height="95.8677" filterUnits="userSpaceOnUse" color-interpolation-filters="sRGB">
<feFlood flood-opacity="0" result="BackgroundImageFix"/>
<feColorMatrix in="SourceAlpha" type="matrix" values="0 0 0 0 0 0 0 0 0 0 0 0 0 0 0 0 0 0 127 0" result="hardAlpha"/>
<feOffset dy="4.44444"/>
<feGaussianBlur stdDeviation="5.55556"/>
<feComposite in2="hardAlpha" operator="out"/>
<feColorMatrix type="matrix" values="0 0 0 0 0 0 0 0 0 0 0 0 0 0 0 0 0 0 0.2 0"/>
<feBlend mode="normal" in2="BackgroundImageFix" result="effect1_dropShadow_426_60611"/>
<feBlend mode="normal" in="SourceGraphic" in2="effect1_dropShadow_426_60611" result="shape"/>
</filter>
<filter id="filter3_d_426_60611" x="195" y="89" width="135" height="76" filterUnits="userSpaceOnUse" color-interpolation-filters="sRGB">
<feFlood flood-opacity="0" result="BackgroundImageFix"/>
<feColorMatrix in="SourceAlpha" type="matrix" values="0 0 0 0 0 0 0 0 0 0 0 0 0 0 0 0 0 0 127 0" result="hardAlpha"/>
<feOffset dy="4"/>
<feGaussianBlur stdDeviation="5"/>
<feComposite in2="hardAlpha" operator="out"/>
<feColorMatrix type="matrix" values="0 0 0 0 0 0 0 0 0 0 0 0 0 0 0 0 0 0 0.2 0"/>
<feBlend mode="normal" in2="BackgroundImageFix" result="effect1_dropShadow_426_60611"/>
<feBlend mode="normal" in="SourceGraphic" in2="effect1_dropShadow_426_60611" result="shape"/>
</filter>
<filter id="filter4_d_426_60611" x="255.2" y="31.2" width="83.2625" height="89.6" filterUnits="userSpaceOnUse" color-interpolation-filters="sRGB">
<feFlood flood-opacity="0" result="BackgroundImageFix"/>
<feColorMatrix in="SourceAlpha" type="matrix" values="0 0 0 0 0 0 0 0 0 0 0 0 0 0 0 0 0 0 127 0" result="hardAlpha"/>
<feOffset dy="4"/>
<feGaussianBlur stdDeviation="2.9"/>
<feComposite in2="hardAlpha" operator="out"/>
<feColorMatrix type="matrix" values="0 0 0 0 0 0 0 0 0 0 0 0 0 0 0 0 0 0 0.25 0"/>
<feBlend mode="normal" in2="BackgroundImageFix" result="effect1_dropShadow_426_60611"/>
<feBlend mode="normal" in="SourceGraphic" in2="effect1_dropShadow_426_60611" result="shape"/>
</filter>
<linearGradient id="paint0_linear_426_60611" x1="174" y1="0" x2="174" y2="168" gradientUnits="userSpaceOnUse">
<stop stop-color="#F4FAFF"/>
<stop offset="1" stop-color="#FFF6E0"/>
</linearGradient>
<linearGradient id="paint1_linear_426_60611" x1="299.092" y1="64.6772" x2="297.934" y2="70.8639" gradientUnits="userSpaceOnUse">
<stop offset="0.0438452" stop-color="#ABD0F8"/>
<stop offset="1" stop-color="#FAD87D"/>
</linearGradient>
<linearGradient id="paint2_linear_426_60611" x1="36.95" y1="21.6206" x2="32.2071" y2="33.2066" gradientUnits="userSpaceOnUse">
<stop offset="0.0438452" stop-color="#ABD0F8"/>
<stop offset="1" stop-color="#FAD87D"/>
</linearGradient>
</defs>
</svg>
