<svg width="12" height="12" viewBox="0 0 12 12" fill="none" xmlns="http://www.w3.org/2000/svg">
<path d="M3.94737 8.98565V2.94258H5.03828V5.74163C5.15311 5.55981 5.26794 5.40191 5.38278 5.26794C5.50718 5.13397 5.61244 5.00957 5.69856 4.89474L7.44976 2.94258H8.68421L6.31579 5.56938L8.74163 8.98565H7.50718L5.55502 6.25837L5.03828 6.70335V8.98565H3.94737ZM6 12C5.17703 12 4.40191 11.8421 3.67464 11.5263C2.94737 11.2201 2.30622 10.7943 1.7512 10.2488C1.20574 9.69378 0.77512 9.05263 0.45933 8.32536C0.15311 7.59809 0 6.82297 0 6C0 5.16746 0.15311 4.39234 0.45933 3.67464C0.77512 2.94737 1.20574 2.311 1.7512 1.76555C2.30622 1.21053 2.94737 0.779904 3.67464 0.473684C4.40191 0.157895 5.17703 0 6 0C6.83254 0 7.60766 0.157895 8.32536 0.473684C9.05263 0.779904 9.689 1.21053 10.2344 1.76555C10.7895 2.311 11.2201 2.94737 11.5263 3.67464C11.8421 4.39234 12 5.16746 12 6C12 6.82297 11.8421 7.59809 11.5263 8.32536C11.2201 9.05263 10.7895 9.69378 10.2344 10.2488C9.689 10.7943 9.05263 11.2201 8.32536 11.5263C7.60766 11.8421 6.83254 12 6 12ZM6 11.0526C6.69856 11.0526 7.35407 10.9234 7.96651 10.6651C8.57895 10.4067 9.11483 10.0478 9.57416 9.58852C10.0431 9.11962 10.4067 8.57895 10.6651 7.96651C10.9234 7.35407 11.0526 6.69856 11.0526 6C11.0526 5.30144 10.9234 4.64593 10.6651 4.03349C10.4067 3.42105 10.0431 2.88517 9.57416 2.42584C9.11483 1.95694 8.57895 1.5933 7.96651 1.33493C7.35407 1.07655 6.69856 0.947368 6 0.947368C5.30144 0.947368 4.64593 1.07655 4.03349 1.33493C3.42105 1.5933 2.88038 1.95694 2.41148 2.42584C1.95215 2.88517 1.5933 3.42105 1.33493 4.03349C1.07656 4.64593 0.947368 5.30144 0.947368 6C0.947368 6.69856 1.07656 7.35407 1.33493 7.96651C1.5933 8.57895 1.95215 9.11962 2.41148 9.58852C2.88038 10.0478 3.42105 10.4067 4.03349 10.6651C4.64593 10.9234 5.30144 11.0526 6 11.0526Z" fill="#8C94D1"/>
</svg>
