<svg width="16" height="16" viewBox="0 0 16 16" fill="none" xmlns="http://www.w3.org/2000/svg">
<g clip-path="url(#clip0_276_4159)">
<path d="M10.6666 1.33301L9.13324 2.86634C8.76678 3.2402 8.56152 3.74284 8.56152 4.26634C8.56152 4.78985 8.76678 5.29248 9.13324 5.66634L10.3332 6.86634C10.7071 7.2328 11.2097 7.43806 11.7332 7.43806C12.2567 7.43806 12.7594 7.2328 13.1332 6.86634L14.6666 5.33301" stroke="#5E87CF" stroke-width="1.33333" stroke-linecap="round" stroke-linejoin="round"/>
<path d="M9.99978 9.99971L2.19978 2.19971C1.9337 2.46041 1.72232 2.77159 1.57801 3.11501C1.43371 3.45843 1.35938 3.8272 1.35938 4.19971C1.35938 4.57222 1.43371 4.94098 1.57801 5.28441C1.72232 5.62783 1.9337 5.939 2.19978 6.19971L7.06645 11.0664C7.53312 11.533 8.39978 11.533 8.93312 11.0664L9.99978 9.99971ZM9.99978 9.99971L14.6665 14.6664" stroke="#5E87CF" stroke-width="1.33333" stroke-linecap="round" stroke-linejoin="round"/>
<path d="M1.39941 14.533L5.66608 10.333" stroke="#5E87CF" stroke-width="1.33333" stroke-linecap="round" stroke-linejoin="round"/>
<path d="M12.6667 3.33301L8 7.99967" stroke="#5E87CF" stroke-width="1.33333" stroke-linecap="round" stroke-linejoin="round"/>
</g>
<defs>
<clipPath id="clip0_276_4159">
<rect width="16" height="16" fill="white"/>
</clipPath>
</defs>
</svg>
