<svg width="12" height="12" viewBox="0 0 12 12" fill="none" xmlns="http://www.w3.org/2000/svg">
<g clip-path="url(#clip0_122_4517)">
<path d="M6 2V1" stroke="#90602E" stroke-linecap="round" stroke-linejoin="round"/>
<path d="M2.5 5V7C2.50008 7.77844 2.75952 8.53466 3.23734 9.1492C3.71515 9.76373 4.3841 10.2016 5.1385 10.3935C5.3445 10.4455 5.5395 10.5395 5.6895 10.6895L6 11L6.3105 10.6895C6.4605 10.5395 6.6555 10.4455 6.8615 10.3935C7.70812 10.1778 8.44367 9.65376 8.924 8.924" stroke="#90602E" stroke-linecap="round" stroke-linejoin="round"/>
<path d="M9.5 5V6.6715" stroke="#90602E" stroke-linecap="round" stroke-linejoin="round"/>
<path d="M6 6C5.3255 5.7135 5.0475 5.4975 4.75 5C4.477 5.451 4.226 5.6765 3.5 6C2.991 5.678 2.77 5.46 2.5 5C1.986 5.355 1.655 5.459 1 5.5C1.5405 4.976 1.8785 4.485 2 4C2.097 3.612 2.42 3.2245 2.895 2.895M8.722 5.8935C9.1655 5.665 9.362 5.448 9.5 5C10.016 5.458 10.3415 5.5785 11 5.5C10.3515 4.982 10.121 4.485 10 4C9.75 3 8 2 6 2C5.63 2 5.2695 2.034 4.925 2.096" stroke="#90602E" stroke-linecap="round" stroke-linejoin="round"/>
<path d="M1 1L11 11" stroke="#A59D94" stroke-linecap="round" stroke-linejoin="round"/>
</g>
<defs>
<clipPath id="clip0_122_4517">
<rect width="12" height="12" fill="white"/>
</clipPath>
</defs>
</svg>
