<svg width="16" height="16" viewBox="0 0 16 16" fill="none" xmlns="http://www.w3.org/2000/svg">
<g clip-path="url(#clip0_145_4809)">
<path d="M8 2.00016V1.3335" stroke="black" stroke-width="1.33333" stroke-linecap="round" stroke-linejoin="round"/>
<path d="M10.2663 11.6002L12.3997 9.73349C12.5266 9.61092 12.6765 9.51456 12.8406 9.4499C13.0048 9.38524 13.1801 9.35356 13.3566 9.35665C13.533 9.35975 13.7071 9.39756 13.8689 9.46794C14.0307 9.53832 14.1771 9.63988 14.2997 9.76682C14.4222 9.89377 14.5186 10.0436 14.5833 10.2078C14.6479 10.372 14.6796 10.5473 14.6765 10.7237C14.6734 10.9002 14.6356 11.0743 14.5652 11.2361C14.4948 11.3979 14.3933 11.5443 14.2663 11.6668L11.8663 13.8668C11.3997 14.4002 10.733 14.6668 9.99967 14.6668H7.33301C6.59967 14.6668 5.93301 14.4002 5.46634 13.8668L4.59834 12.8908C4.53585 12.8204 4.45916 12.7641 4.37333 12.7255C4.28749 12.6869 4.19446 12.6669 4.10034 12.6668H3.33301" stroke="black" stroke-width="1.33333" stroke-linecap="round" stroke-linejoin="round"/>
<path d="M1.33301 9.3335H9.33301C9.68663 9.3335 10.0258 9.47397 10.2758 9.72402C10.5259 9.97407 10.6663 10.3132 10.6663 10.6668C10.6663 11.0205 10.5259 11.3596 10.2758 11.6096C10.0258 11.8597 9.68663 12.0002 9.33301 12.0002H7.99967" stroke="black" stroke-width="1.33333" stroke-linecap="round" stroke-linejoin="round"/>
<path d="M2.66699 6.6665H13.3337" stroke="black" stroke-width="1.33333" stroke-linecap="round" stroke-linejoin="round"/>
<path d="M3.33301 6.66667C3.33301 5.42899 3.82467 4.242 4.69984 3.36683C5.57501 2.49167 6.762 2 7.99967 2C9.23735 2 10.4243 2.49167 11.2995 3.36683C12.1747 4.242 12.6663 5.42899 12.6663 6.66667" stroke="black" stroke-width="1.33333" stroke-linecap="round" stroke-linejoin="round"/>
<path d="M3.33301 9.3335V13.3335C3.33301 13.5103 3.26277 13.6799 3.13775 13.8049C3.01272 13.9299 2.84315 14.0002 2.66634 14.0002H1.33301" stroke="black" stroke-width="1.33333" stroke-linecap="round" stroke-linejoin="round"/>
</g>
<defs>
<clipPath id="clip0_145_4809">
<rect width="16" height="16" fill="white"/>
</clipPath>
</defs>
</svg>
