<svg width="14" height="14" viewBox="0 0 14 14" fill="none" xmlns="http://www.w3.org/2000/svg">
<g clip-path="url(#clip0_122_2425)">
<path d="M8.98328 9.1172C8.11024 9.3973 7.24415 9.40409 6.51248 9.13655C5.7808 8.86901 5.22219 8.34129 4.91884 7.63104C4.6155 6.92079 4.58346 6.06554 4.82742 5.19115C5.07139 4.31675 5.57848 3.46941 6.27407 2.77382C6.96966 2.07824 7.817 1.57115 8.69139 1.32718C9.56578 1.08321 10.421 1.11526 11.1313 1.4186C11.8415 1.72194 12.3693 2.28056 12.6368 3.01223C12.9043 3.74391 12.8975 4.61 12.6174 5.48303C12.2121 5.25184 11.6983 5.19433 11.1623 5.32018C10.6263 5.44604 10.1008 5.74757 9.67432 6.17407C9.24782 6.60058 8.94628 7.12602 8.82043 7.66203C8.69457 8.19804 8.75208 8.7119 8.98328 9.1172Z" stroke="#A56D1A" stroke-width="1.16667" stroke-linecap="round" stroke-linejoin="round"/>
<path d="M4.83569 7.41406L3.31903 8.93073C3.1338 8.82868 2.92859 8.76814 2.71763 8.7533C2.50667 8.73846 2.295 8.76969 2.09731 8.84481C1.89962 8.91992 1.72064 9.03714 1.57276 9.18833C1.42489 9.33951 1.31166 9.52105 1.24094 9.72036C1.17022 9.91967 1.14369 10.132 1.1632 10.3425C1.1827 10.5531 1.24778 10.7569 1.3539 10.9399C1.46003 11.1228 1.60467 11.2804 1.7778 11.4019C1.95093 11.5234 2.1484 11.6057 2.35653 11.6432C2.39737 11.8486 2.48197 12.0429 2.60459 12.2126C2.7272 12.3824 2.88495 12.5238 3.06711 12.6272C3.24926 12.7306 3.45154 12.7935 3.66018 12.8117C3.86883 12.8299 4.07894 12.8029 4.27624 12.7326C4.47353 12.6624 4.65337 12.5504 4.80352 12.4044C4.95368 12.2584 5.07062 12.0818 5.1464 11.8865C5.22218 11.6913 5.25501 11.482 5.24267 11.2729C5.23032 11.0638 5.17309 10.8599 5.07486 10.6749L6.58569 9.16406" stroke="#A56D1A" stroke-width="1.16667" stroke-linecap="round" stroke-linejoin="round"/>
</g>
<defs>
<clipPath id="clip0_122_2425">
<rect width="14" height="14" fill="white"/>
</clipPath>
</defs>
</svg>
