<svg width="16" height="16" viewBox="0 0 16 16" fill="none" xmlns="http://www.w3.org/2000/svg">
<g clip-path="url(#clip0_145_4803)">
<path d="M8.76296 14.0961C9.40963 13.4494 9.96127 12.7204 10.3864 11.9506C10.8115 11.1808 11.1017 10.3854 11.2405 9.60967C11.3794 8.83396 11.364 8.09319 11.1954 7.42966C11.0268 6.76612 10.7083 6.19282 10.2579 5.74247C9.80759 5.29212 9.23428 4.97356 8.57074 4.80496C7.90721 4.63636 7.16644 4.62104 6.39073 4.75986C5.61503 4.89868 4.81957 5.18893 4.04979 5.61403C3.28 6.03914 2.55097 6.59077 1.9043 7.23744" stroke="black" stroke-width="1.33333" stroke-linecap="round" stroke-linejoin="round"/>
<path d="M8.76273 14.0962C9.30852 13.5504 9.47064 12.6657 9.21345 11.6367C8.95625 10.6076 8.3008 9.51853 7.39128 8.60901C6.48176 7.69949 5.39269 7.04404 4.36364 6.78685C3.33458 6.52965 2.44985 6.69178 1.90406 7.23756C1.35828 7.78334 1.19615 8.66808 1.45335 9.69713C1.71055 10.7262 2.366 11.8153 3.27551 12.7248C4.18503 13.6343 5.27411 14.2897 6.30316 14.5469C7.33221 14.8041 8.21695 14.642 8.76273 14.0962Z" stroke="black" stroke-width="1.33333" stroke-linecap="round" stroke-linejoin="round"/>
<path d="M11.0433 6.95654L12.3999 5.59988C12.6117 5.71723 12.8465 5.78704 13.088 5.80447C13.3295 5.82189 13.5719 5.78651 13.7984 5.70078C14.0248 5.61505 14.2299 5.48103 14.3993 5.30803C14.5687 5.13504 14.6984 4.92722 14.7794 4.69903C14.8604 4.47084 14.8907 4.22775 14.8682 3.98667C14.8457 3.74559 14.771 3.51229 14.6492 3.303C14.5275 3.09372 14.3616 2.91346 14.1631 2.77476C13.9646 2.63607 13.7383 2.54227 13.4999 2.49988C13.4533 2.26511 13.3566 2.04316 13.2164 1.84911C13.0763 1.65506 12.896 1.49348 12.6879 1.37534C12.4797 1.25721 12.2485 1.1853 12.0101 1.1645C11.7716 1.14371 11.5315 1.17452 11.306 1.25484C11.0805 1.33516 10.875 1.46311 10.7034 1.62997C10.5318 1.79684 10.3981 1.99871 10.3115 2.22185C10.2249 2.44499 10.1874 2.68416 10.2015 2.92311C10.2156 3.16205 10.281 3.39514 10.3933 3.60654L9.04395 4.95654" stroke="black" stroke-width="1.33333" stroke-linecap="round" stroke-linejoin="round"/>
<path d="M5.66667 11.0002L5 10.3335" stroke="black" stroke-width="1.33333" stroke-linecap="round" stroke-linejoin="round"/>
</g>
<defs>
<clipPath id="clip0_145_4803">
<rect width="16" height="16" fill="white"/>
</clipPath>
</defs>
</svg>
