<svg width="14" height="14" viewBox="0 0 14 14" fill="none" xmlns="http://www.w3.org/2000/svg">
<path d="M9.56656 7.99173C10.045 7.63218 10.4315 7.16447 10.6945 6.62687C10.9575 6.08927 11.0896 5.49705 11.0798 4.89865C11.07 4.30024 10.9187 3.71265 10.6383 3.18393C10.3578 2.65522 9.95622 2.20039 9.46628 1.85667C8.97635 1.51294 8.41201 1.29007 7.81941 1.20628C7.22682 1.1225 6.62281 1.18019 6.05679 1.37462C5.49077 1.56905 4.97881 1.89471 4.5628 2.32496C4.14678 2.75521 3.83852 3.27783 3.66323 3.85007C3.02156 5.6759 3.20823 6.12507 1.80823 7.39673C1.52925 7.62544 1.32778 7.93478 1.23137 8.28239C1.13497 8.63001 1.14835 8.99893 1.26968 9.33866C1.39101 9.67838 1.61436 9.97231 1.90916 10.1802C2.20397 10.3881 2.55582 10.4998 2.91656 10.5001C5.24989 10.5001 7.81656 9.45007 9.56656 7.99173Z" stroke="#A23A3A" stroke-width="1.16667" stroke-linecap="round" stroke-linejoin="round"/>
<path d="M10.7916 3.5L12.0691 6.125C12.3136 6.87684 12.3162 7.68642 12.0766 8.43983C11.837 9.19324 11.3672 9.85256 10.7332 10.325C8.98324 11.7833 6.41657 12.8333 4.08324 12.8333C3.75846 12.8329 3.44022 12.7421 3.16413 12.5711C2.88803 12.4 2.66497 12.1556 2.5199 11.865L1.3999 9.625" stroke="#A23A3A" stroke-width="1.16667" stroke-linecap="round" stroke-linejoin="round"/>
<path d="M7.29159 6.41667C8.097 6.41667 8.74992 5.76375 8.74992 4.95833C8.74992 4.15292 8.097 3.5 7.29159 3.5C6.48617 3.5 5.83325 4.15292 5.83325 4.95833C5.83325 5.76375 6.48617 6.41667 7.29159 6.41667Z" stroke="#A23A3A" stroke-width="1.16667" stroke-linecap="round" stroke-linejoin="round"/>
</svg>
