<svg width="16" height="16" viewBox="0 0 16 16" fill="none" xmlns="http://www.w3.org/2000/svg">
<g clip-path="url(#clip0_214_5362)">
<path d="M1.99414 10.8946C2.09216 11.1419 2.11399 11.4128 2.0568 11.6726L1.3468 13.866C1.32392 13.9772 1.32984 14.0924 1.36399 14.2007C1.39813 14.309 1.45938 14.4068 1.54191 14.4848C1.62445 14.5628 1.72554 14.6184 1.8356 14.6464C1.94566 14.6744 2.06104 14.6738 2.1708 14.6446L4.44614 13.9793C4.69128 13.9307 4.94515 13.9519 5.1788 14.0406C6.60239 14.7054 8.21505 14.8461 9.73224 14.4378C11.2494 14.0295 12.5736 13.0984 13.4713 11.8089C14.3689 10.5193 14.7822 8.95423 14.6383 7.38966C14.4945 5.82509 13.8026 4.3616 12.6848 3.25742C11.5671 2.15324 10.0953 1.47932 8.52906 1.35456C6.96284 1.2298 5.40289 1.66221 4.12443 2.57552C2.84597 3.48882 1.93116 4.82432 1.5414 6.34638C1.15164 7.86845 1.31198 9.47926 1.99414 10.8946Z" stroke="#5E87CF" stroke-width="1.33333" stroke-linecap="round" stroke-linejoin="round"/>
<path d="M8 5.3335V8.00016" stroke="#5E87CF" stroke-width="1.33333" stroke-linecap="round" stroke-linejoin="round"/>
<path d="M8 10.6665H8.00667" stroke="#5E87CF" stroke-width="1.33333" stroke-linecap="round" stroke-linejoin="round"/>
</g>
<defs>
<clipPath id="clip0_214_5362">
<rect width="16" height="16" fill="white"/>
</clipPath>
</defs>
</svg>
