<svg width="14" height="14" viewBox="0 0 14 14" fill="none" xmlns="http://www.w3.org/2000/svg">
<g clip-path="url(#clip0_122_2435)">
<path d="M6.41675 7H6.42258" stroke="#D86C4B" stroke-width="1.16667" stroke-linecap="round" stroke-linejoin="round"/>
<path d="M7.58325 12.8332C7.87492 12.5415 8.23659 12.2498 9.04159 12.2498C8.23659 12.2498 7.87492 11.9582 7.58325 11.6665" stroke="#D86C4B" stroke-width="1.16667" stroke-linecap="round" stroke-linejoin="round"/>
<path d="M8.16675 1.1665C7.99463 1.51018 7.72299 1.79404 7.38723 1.98112C7.05147 2.1682 6.66714 2.24982 6.28433 2.21534L2.68516 1.88809C2.49725 1.87001 2.30762 1.89034 2.1278 1.94783C1.94799 2.00532 1.78174 2.09877 1.63917 2.22251C1.49659 2.34625 1.38067 2.49769 1.29844 2.66762C1.21622 2.83756 1.16941 3.02244 1.16085 3.21103C1.1523 3.39961 1.18219 3.58797 1.24869 3.76465C1.3152 3.94133 1.41694 4.10264 1.54773 4.23878C1.67852 4.37491 1.83563 4.48303 2.0095 4.55656C2.18337 4.63009 2.37038 4.6675 2.55916 4.6665H9.04175C10.0474 4.6665 11.0118 5.06598 11.7229 5.77706C12.4339 6.48813 12.8334 7.45256 12.8334 8.45817C12.8334 9.46378 12.4339 10.4282 11.7229 11.1393C11.0118 11.8504 10.0474 12.2498 9.04175 12.2498C9.42852 12.2498 9.79945 12.0962 10.0729 11.8227C10.3464 11.5492 10.5001 11.1783 10.5001 10.7915C10.5001 10.4047 10.3464 10.0338 10.0729 9.76031C9.79945 9.48682 9.42852 9.33317 9.04175 9.33317H7.00008C5.91711 9.33317 4.8785 8.90296 4.11273 8.13719C3.34695 7.37142 2.91675 6.3328 2.91675 5.24984V4.6665" stroke="#D86C4B" stroke-width="1.16667" stroke-linecap="round" stroke-linejoin="round"/>
<path d="M8.16675 4.6665C8.54974 5.38462 8.75008 6.18597 8.75008 6.99984C8.75008 7.8137 8.54974 8.61505 8.16675 9.33317" stroke="#D86C4B" stroke-width="1.16667" stroke-linecap="round" stroke-linejoin="round"/>
<path d="M9.33325 9.3335C10.4999 9.3335 11.9583 7.00016 11.6666 5.8335" stroke="#D86C4B" stroke-width="1.16667" stroke-linecap="round" stroke-linejoin="round"/>
</g>
<defs>
<clipPath id="clip0_122_2435">
<rect width="14" height="14" fill="white"/>
</clipPath>
</defs>
</svg>
