<svg width="16" height="16" viewBox="0 0 16 16" fill="none" xmlns="http://www.w3.org/2000/svg">
<g clip-path="url(#clip0_145_4784)">
<path d="M8.66653 4.66653L5.79987 1.79987C5.49879 1.50024 5.0913 1.33203 4.66653 1.33203C4.24177 1.33203 3.83428 1.50024 3.5332 1.79987L1.79987 3.5332C1.50024 3.83428 1.33203 4.24177 1.33203 4.66653C1.33203 5.0913 1.50024 5.49879 1.79987 5.79987L4.66653 8.66653" stroke="black" stroke-width="1.33333" stroke-linecap="round" stroke-linejoin="round"/>
<path d="M5.33301 3.99984L6.66634 2.6665" stroke="black" stroke-width="1.33333" stroke-linecap="round" stroke-linejoin="round"/>
<path d="M12 10.6668L13.3333 9.3335" stroke="black" stroke-width="1.33333" stroke-linecap="round" stroke-linejoin="round"/>
<path d="M11.333 7.3335L14.1997 10.2002C14.8263 10.8268 14.8263 11.8402 14.1997 12.4668L12.4663 14.2002C11.8397 14.8268 10.8263 14.8268 10.1997 14.2002L7.33301 11.3335" stroke="black" stroke-width="1.33333" stroke-linecap="round" stroke-linejoin="round"/>
<path d="M14.1156 4.54126C14.4681 4.18888 14.6662 3.71091 14.6662 3.2125C14.6663 2.71409 14.4683 2.23607 14.116 1.8836C13.7636 1.53112 13.2856 1.33307 12.7872 1.33301C12.2888 1.33295 11.8108 1.53088 11.4583 1.88326L2.56096 10.7826C2.40618 10.9369 2.29171 11.127 2.22763 11.3359L1.34696 14.2373C1.32973 14.2949 1.32843 14.3562 1.3432 14.4145C1.35796 14.4728 1.38824 14.5261 1.43083 14.5686C1.47341 14.6111 1.52671 14.6413 1.58507 14.656C1.64343 14.6707 1.70467 14.6693 1.7623 14.6519L4.6643 13.7719C4.87308 13.7084 5.06308 13.5947 5.21763 13.4406L14.1156 4.54126Z" stroke="black" stroke-width="1.33333" stroke-linecap="round" stroke-linejoin="round"/>
<path d="M10 3.3335L12.6667 6.00016" stroke="black" stroke-width="1.33333" stroke-linecap="round" stroke-linejoin="round"/>
</g>
<defs>
<clipPath id="clip0_145_4784">
<rect width="16" height="16" fill="white"/>
</clipPath>
</defs>
</svg>
