<svg xmlns="http://www.w3.org/2000/svg" width="20" height="19" viewBox="0 0 20 19" fill="none">
  <path d="M3.44824 11.7236C3.60054 11.7236 3.73769 11.8171 3.79297 11.959L4.5957 14.0244L6.66113 14.8281C6.80294 14.8834 6.8964 15.0197 6.89648 15.1719C6.89648 15.3242 6.80311 15.4614 6.66113 15.5166L4.5957 16.3193L3.79297 18.3848C3.73774 18.5268 3.60061 18.6201 3.44824 18.6201C3.29589 18.6201 3.15874 18.5268 3.10352 18.3848L2.30078 16.3193L0.235352 15.5166C0.0934038 15.4613 0 15.3242 0 15.1719C8.3916e-05 15.0197 0.0935749 14.8834 0.235352 14.8281L2.30078 14.0244L3.10352 11.959C3.15878 11.8171 3.29595 11.7236 3.44824 11.7236ZM11.7236 0C12.0893 0 12.4182 0.224608 12.5508 0.56543L14.4775 5.52148L19.4346 7.44922C19.7753 7.58175 19.9999 7.90983 20 8.27539C20 8.64099 19.7753 8.96896 19.4346 9.10156L14.4775 11.0293L12.5508 15.9863C12.4182 16.3272 12.0893 16.5518 11.7236 16.5518C11.3581 16.5516 11.03 16.327 10.8975 15.9863L8.96973 11.0293L4.01367 9.10156C3.67285 8.96902 3.44824 8.64108 3.44824 8.27539C3.44834 7.9098 3.67292 7.58173 4.01367 7.44922L8.96973 5.52148L10.8975 0.56543C11.03 0.224704 11.3581 0.000126326 11.7236 0Z" fill="url(#paint0_linear_145_4390)"/>
  <defs>
    <linearGradient id="paint0_linear_145_4390" x1="18.5" y1="2.0689" x2="11.7245" y2="18.6203" gradientUnits="userSpaceOnUse">
      <stop offset="0.0438452" stop-color="#ABD0F8"/>
      <stop offset="1" stop-color="#FAD87D"/>
    </linearGradient>
  </defs>
</svg>
