<svg width="29" height="27" viewBox="0 0 29 27" fill="none" xmlns="http://www.w3.org/2000/svg">
<path d="M5 17C5.22094 17 5.41895 17.1359 5.49902 17.3418L6.66406 20.3359L9.6582 21.501C9.86412 21.5811 10 21.7791 10 22C10 22.2209 9.86412 22.4189 9.6582 22.499L6.66406 23.6641L5.49902 26.6582C5.41895 26.8641 5.22094 27 5 27C4.77906 27 4.58105 26.8641 4.50098 26.6582L3.33594 23.6641L0.341797 22.499C0.135884 22.4189 6.19663e-08 22.2209 0 22C0 21.7791 0.135884 21.5811 0.341797 21.501L3.33594 20.3359L4.50098 17.3418C4.58105 17.1359 4.77906 17 5 17ZM17 0C17.5301 0 18.006 0.325337 18.1982 0.819336L20.9932 8.00684L28.1807 10.8018C28.6747 10.994 29 11.4699 29 12C29 12.5301 28.6747 13.006 28.1807 13.1982L20.9932 15.9932L18.1982 23.1807C18.006 23.6747 17.5301 24 17 24C16.4699 24 15.994 23.6747 15.8018 23.1807L13.0068 15.9932L5.81934 13.1982C5.32534 13.006 5 12.5301 5 12C5 11.4699 5.32534 10.994 5.81934 10.8018L13.0068 8.00684L15.8018 0.819336C15.994 0.325337 16.4699 6.48001e-09 17 0Z" fill="url(#paint0_linear_130_3977)"/>
<defs>
<linearGradient id="paint0_linear_130_3977" x1="26.825" y1="3" x2="17" y2="27" gradientUnits="userSpaceOnUse">
<stop offset="0.0438452" stop-color="#ABD0F8"/>
<stop offset="1" stop-color="#FAD87D"/>
</linearGradient>
</defs>
</svg>
