<svg width="16" height="16" viewBox="0 0 16 16" fill="none" xmlns="http://www.w3.org/2000/svg">
<path d="M7.99967 2C8.44412 3.77778 9.33301 5.22222 10.6663 6.33333C11.9997 7.44444 12.6663 8.66667 12.6663 10C12.6663 11.2377 12.1747 12.4247 11.2995 13.2998C10.4243 14.175 9.23735 14.6667 7.99967 14.6667C6.762 14.6667 5.57501 14.175 4.69984 13.2998C3.82467 12.4247 3.33301 11.2377 3.33301 10C3.33301 9.27877 3.56693 8.57699 3.99967 8C3.99967 8.44203 4.17527 8.86595 4.48783 9.17851C4.80039 9.49107 5.22431 9.66667 5.66634 9.66667C6.10837 9.66667 6.53229 9.49107 6.84485 9.17851C7.15741 8.86595 7.33301 8.44203 7.33301 8C7.33301 6.66667 6.33301 6 6.33301 4.66667C6.33301 3.77778 6.88856 2.88889 7.99967 2Z" stroke="black" stroke-width="1.33333" stroke-linecap="round" stroke-linejoin="round"/>
</svg>
