<svg width="16" height="16" viewBox="0 0 16 16" fill="none" xmlns="http://www.w3.org/2000/svg">
<path d="M11.3338 14.0003C11.5106 14.0003 11.6801 13.93 11.8052 13.805C11.9302 13.68 12.0004 13.5104 12.0004 13.3336V9.76693C12.0004 9.46226 12.2111 9.20426 12.4851 9.07293C13.0524 8.8023 13.5059 8.33996 13.7655 7.76752C14.0251 7.19508 14.0742 6.54933 13.904 5.94424C13.7339 5.33914 13.3555 4.8136 12.8355 4.46036C12.3156 4.10712 11.6876 3.94889 11.0624 4.0136C10.8049 3.41507 10.3777 2.90513 9.83347 2.54682C9.28927 2.18852 8.65199 1.99756 8.00042 1.99756C7.34886 1.99756 6.71158 2.18852 6.16737 2.54682C5.62317 2.90513 5.19591 3.41507 4.93842 4.0136C4.31348 3.94934 3.68591 4.1078 3.16638 4.46102C2.64684 4.81424 2.2687 5.33955 2.09861 5.94433C1.92853 6.54911 1.97743 7.19452 2.23669 7.76676C2.49595 8.33901 2.94893 8.80135 3.51575 9.07226C3.78975 9.20426 4.00042 9.46226 4.00042 9.76626V13.3336C4.00042 13.5104 4.07066 13.68 4.19568 13.805C4.32071 13.93 4.49028 14.0003 4.66709 14.0003H11.3338Z" stroke="black" stroke-width="1.33333" stroke-linecap="round" stroke-linejoin="round"/>
<path d="M4 11.3335H12" stroke="black" stroke-width="1.33333" stroke-linecap="round" stroke-linejoin="round"/>
</svg>
