<svg width="12" height="12" viewBox="0 0 12 12" fill="none" xmlns="http://www.w3.org/2000/svg">
<g clip-path="url(#clip0_122_4490)">
<path d="M5.50011 10C4.62214 10.0027 3.77524 9.67525 3.12737 9.08271C2.4795 8.49017 2.07799 7.67577 2.00248 6.80105C1.92696 5.92633 2.18296 5.05518 2.71969 4.36037C3.25642 3.66556 4.03468 3.19785 4.90011 3.05C7.75011 2.5 8.50011 2.24 9.50011 1C10.0001 2 10.5001 3.09 10.5001 5C10.5001 7.75 8.11011 10 5.50011 10Z" stroke="#22A72F" stroke-linecap="round" stroke-linejoin="round"/>
<path d="M1 10.5C1 9 1.925 7.82 3.54 7.5C4.75 7.26 6 6.5 6.5 6" stroke="#22A72F" stroke-linecap="round" stroke-linejoin="round"/>
</g>
<defs>
<clipPath id="clip0_122_4490">
<rect width="12" height="12" fill="white"/>
</clipPath>
</defs>
</svg>
