<svg width="12" height="12" viewBox="0 0 12 12" fill="none" xmlns="http://www.w3.org/2000/svg">
<g clip-path="url(#clip0_122_4508)">
<path d="M4.32001 7.00002L3.29501 5.98002M7.67001 7.50002L6.44001 6.27002M1.13501 10.85C1.13501 10.85 6.07001 9.10002 7.50001 7.67002C7.70914 7.46121 7.8751 7.21327 7.9884 6.94033C8.10171 6.66739 8.16014 6.37481 8.16038 6.07928C8.16061 5.78376 8.10263 5.49109 7.98975 5.21797C7.87688 4.94486 7.71131 4.69665 7.50251 4.48752C7.29371 4.27839 7.04576 4.11243 6.77282 3.99912C6.49988 3.88582 6.2073 3.82738 5.91178 3.82715C5.61626 3.82692 5.32358 3.88489 5.05046 3.99777C4.77735 4.11065 4.52914 4.27621 4.32001 4.48502C2.88501 5.92002 1.13501 10.85 1.13501 10.85Z" stroke="#F19E3F" stroke-linecap="round" stroke-linejoin="round"/>
<path d="M11 4.5C11 4.5 10.335 3.5 9.25 3.5C8.43 3.5 7.5 4.5 7.5 4.5C7.5 4.5 8.165 5.5 9.25 5.5C10.335 5.5 11 4.5 11 4.5Z" stroke="#22A72F" stroke-linecap="round" stroke-linejoin="round"/>
<path d="M7.5 1C7.5 1 6.5 1.665 6.5 2.75C6.5 3.835 7.5 4.5 7.5 4.5C7.5 4.5 8.5 3.58 8.5 2.75C8.5 1.665 7.5 1 7.5 1Z" stroke="#22A72F" stroke-linecap="round" stroke-linejoin="round"/>
</g>
<defs>
<clipPath id="clip0_122_4508">
<rect width="12" height="12" fill="white"/>
</clipPath>
</defs>
</svg>
